<svg width="191" height="36" viewBox="0 0 191 36" fill="none" xmlns="http://www.w3.org/2000/svg">
<path fill-rule="evenodd" clip-rule="evenodd" d="M29.8261 1L34.6304 9.5007L39.4348 18.0014L34.6304 26.4996L29.8261 35H10.6087L5.80435 26.4996L1 18.0014L5.80435 9.5007L10.6087 1H29.8261ZM19.6855 28.0985L13.9759 17.9989L19.6855 7.89898H14.5078L11.653 12.95L8.79822 17.9989L11.653 23.0475L14.5078 28.0985H19.6855ZM21.0202 7.89898L15.3106 17.9989L21.0202 28.0985H25.927L28.7818 23.0475L31.6366 17.9989L28.7818 12.95L25.927 7.89898H21.0202ZM10.9527 33.2472L13.4879 28.7649L10.6063 23.665L7.40011 17.9964L10.6063 12.3275L13.4879 7.22763L10.9527 2.74531L6.80474 10.0851L2.33469 17.9936L6.80474 25.9024L10.9527 33.2422V33.2472ZM14.4541 29.3364L11.919 33.8187H29.16L33.63 25.9074L38.1026 17.9989L33.63 10.0901L29.16 2.17908H11.919L14.4541 6.66109H26.6273L29.831 12.33L33.0371 17.9989L29.831 23.6675L26.6273 29.3364H14.4541Z" fill="white" stroke="white" stroke-width="0.6"/>
<path d="M61.4 17.98C61.62 17.76 61.64 17.38 61.42 17.16C61.2 16.92 60.84 16.9 60.6 17.12L58.74 18.86H48.96V13.56H58.8C59.12 13.56 59.36 13.3 59.36 12.98C59.36 12.66 59.12 12.4 58.8 12.4H48.96V7.12H58.74L60.6 8.84C60.84 9.06 61.2 9.04 61.42 8.8C61.64 8.58 61.62 8.22 61.4 8L59.52 6.26C59.32 6.06 59.04 5.96 58.74 5.96H48.38C48.06 5.96 47.8 6.22 47.8 6.54V12.98V19.44C47.8 19.74 48.06 20 48.38 20H58.74C59.04 20 59.32 19.9 59.52 19.7L61.4 17.98ZM83.1711 5.78C82.8511 5.78 82.5911 6.04 82.5911 6.36V18.84H81.4711L71.3111 6C71.1911 5.86 71.0311 5.78 70.8511 5.78H68.9511C68.6311 5.78 68.3711 6.04 68.3711 6.36V19.42C68.3711 19.74 68.6311 20 68.9511 20C69.2711 20 69.5311 19.74 69.5311 19.42V6.94L70.5711 6.92L80.7311 19.78C80.8311 19.92 81.0111 20 81.1911 20H83.1711C83.4911 20 83.7511 19.74 83.7511 19.42V6.36C83.7511 6.04 83.4911 5.78 83.1711 5.78ZM105.044 17.96C105.284 17.74 105.424 17.44 105.424 17.12V8.84C105.424 8.5 105.284 8.2 105.044 7.98L103.184 6.26C102.964 6.06 102.684 5.96 102.404 5.96H91.1238C90.8038 5.96 90.5438 6.2 90.5438 6.52V19.42C90.5438 19.74 90.8038 20 91.1238 20H102.384C102.684 20 102.964 19.9 103.184 19.7L105.044 17.96ZM91.7038 18.84V7.1H102.404L104.264 8.82V17.12L102.404 18.84H102.384H91.7038ZM114.468 19.7C114.668 19.9 114.948 20 115.248 20H124.288C124.588 20 124.868 19.88 125.068 19.7L127.128 17.8C127.248 17.68 127.308 17.52 127.308 17.36V12.98C127.308 12.66 127.048 12.4 126.748 12.4H119.768C119.448 12.4 119.188 12.66 119.188 12.98C119.188 13.3 119.448 13.56 119.768 13.56H126.168V17.12L124.288 18.84H115.248L113.368 17.12V8.84L115.248 7.1H124.288L126.348 9C126.588 9.22 126.948 9.22 127.168 8.98C127.388 8.74 127.368 8.38 127.128 8.16L125.068 6.26C124.868 6.06 124.588 5.96 124.288 5.96H115.248C114.948 5.96 114.668 6.06 114.468 6.26L112.588 7.98C112.348 8.2 112.228 8.52 112.228 8.84V17.12C112.228 17.44 112.348 17.76 112.588 17.98L114.468 19.7ZM148.147 19.42L147.567 18.84H145.887L143.607 14.2H145.067C145.367 14.2 145.647 14.1 145.847 13.9L147.727 12.18C147.947 11.96 148.087 11.64 148.087 11.32V8.84C148.087 8.52 147.947 8.2 147.727 7.98L145.847 6.26C145.647 6.06 145.367 5.96 145.067 5.96H134.707C134.387 5.96 134.127 6.2 134.127 6.52V19.42C134.127 19.74 134.387 20 134.707 20C135.027 20 135.287 19.74 135.287 19.42V14.2H142.327L144.947 19.52C144.967 19.58 145.007 19.64 145.067 19.7C145.287 19.9 145.567 20 145.847 20H147.567C147.887 20 148.147 19.74 148.147 19.42ZM135.287 13.06V7.1H145.067L146.927 8.84L146.947 11.32C146.947 11.32 146.927 11.32 146.927 11.34L145.067 13.04V13.06H135.287ZM166.232 6.36C166.032 6.12 165.712 6 165.392 6H157.832C157.492 6 157.192 6.12 156.972 6.36L155.252 8.2C155.052 8.42 154.952 8.7 154.952 9V19.44C154.952 19.76 155.212 20 155.512 20C155.832 20 156.092 19.76 156.092 19.44V14.24H167.112V19.44C167.112 19.76 167.372 20 167.692 20C168.012 20 168.272 19.76 168.272 19.44V9C168.272 8.7 168.152 8.42 167.972 8.2L166.232 6.36ZM156.112 9L157.812 7.14C157.812 7.12 157.812 7.12 157.832 7.12H165.392C165.392 7.12 165.412 7.12 165.412 7.14L167.112 9V13.08H156.092V9H156.112ZM156.092 13.18C156.112 13.18 156.112 13.2 156.092 13.2V13.18ZM167.112 13.2C167.092 13.2 167.092 13.18 167.112 13.18V13.2ZM156.092 14.12C156.112 14.16 156.112 14.16 156.092 14.18V14.12ZM167.112 14.18C167.092 14.16 167.092 14.16 167.112 14.12V14.18ZM176.234 13.38H186.074C186.394 13.38 186.654 13.12 186.654 12.82C186.654 12.5 186.394 12.24 186.074 12.24H176.234V6.94H186.014L187.894 8.66C188.114 8.88 188.494 8.88 188.694 8.64C188.914 8.4 188.894 8.04 188.674 7.82L186.814 6.1C186.594 5.9 186.314 5.78 186.014 5.78H175.654C175.334 5.78 175.074 6.04 175.074 6.36V12.8C175.074 12.8 175.074 12.8 175.074 12.82V19.42C175.074 19.74 175.334 20 175.654 20C175.974 20 176.234 19.74 176.234 19.42V13.38Z" fill="white"/>
<path d="M61.4 17.98L61.67 18.2751L61.6766 18.2691L61.6828 18.2628L61.4 17.98ZM61.42 17.16L61.1251 17.4303L61.131 17.4367L61.1372 17.4428L61.42 17.16ZM60.6 17.12L60.3297 16.8251L60.3267 16.8279L60.6 17.12ZM58.74 18.86V19.26H58.8979L59.0133 19.1521L58.74 18.86ZM48.96 18.86H48.56V19.26H48.96V18.86ZM48.96 13.56V13.16H48.56V13.56H48.96ZM48.96 12.4H48.56V12.8H48.96V12.4ZM48.96 7.12V6.72H48.56V7.12H48.96ZM58.74 7.12L59.0116 6.82632L58.8966 6.72H58.74V7.12ZM60.6 8.84L60.3284 9.13368L60.3297 9.13486L60.6 8.84ZM61.42 8.8L61.1372 8.51716L61.131 8.5233L61.1251 8.52971L61.42 8.8ZM61.4 8L61.6828 7.71716L61.6774 7.71169L61.6717 7.70644L61.4 8ZM59.52 6.26L59.2372 6.54284L59.2426 6.54831L59.2483 6.55356L59.52 6.26ZM59.52 19.7L59.25 19.4049L59.2434 19.4109L59.2372 19.4172L59.52 19.7ZM61.6828 18.2628C62.041 17.9047 62.0965 17.2708 61.7028 16.8772L61.1372 17.4428C61.1588 17.4645 61.177 17.5023 61.1752 17.5567C61.1734 17.6123 61.1506 17.6637 61.1172 17.6972L61.6828 18.2628ZM61.7149 16.8897C61.3493 16.491 60.7366 16.4521 60.3297 16.8251L60.8703 17.4149C60.9434 17.3479 61.0507 17.349 61.1251 17.4303L61.7149 16.8897ZM60.3267 16.8279L58.4667 18.5679L59.0133 19.1521L60.8733 17.4121L60.3267 16.8279ZM58.74 18.46H48.96V19.26H58.74V18.46ZM49.36 18.86V13.56H48.56V18.86H49.36ZM48.96 13.96H58.8V13.16H48.96V13.96ZM58.8 13.96C59.3591 13.96 59.76 13.5023 59.76 12.98H58.96C58.96 13.0391 58.9383 13.0848 58.9103 13.1141C58.8836 13.1422 58.8473 13.16 58.8 13.16V13.96ZM59.76 12.98C59.76 12.4577 59.3591 12 58.8 12V12.8C58.8473 12.8 58.8836 12.8178 58.9103 12.8459C58.9383 12.8752 58.96 12.9209 58.96 12.98H59.76ZM58.8 12H48.96V12.8H58.8V12ZM49.36 12.4V7.12H48.56V12.4H49.36ZM48.96 7.52H58.74V6.72H48.96V7.52ZM58.4684 7.41368L60.3284 9.13368L60.8716 8.54632L59.0116 6.82632L58.4684 7.41368ZM60.3297 9.13486C60.7366 9.50787 61.3493 9.46903 61.7149 9.07029L61.1251 8.52971C61.0507 8.61096 60.9434 8.61213 60.8703 8.54514L60.3297 9.13486ZM61.7028 9.08284C62.0971 8.68857 62.0404 8.07467 61.6828 7.71716L61.1172 8.28284C61.1996 8.36533 61.1829 8.47143 61.1372 8.51716L61.7028 9.08284ZM61.6717 7.70644L59.7917 5.96644L59.2483 6.55356L61.1283 8.29356L61.6717 7.70644ZM59.8028 5.97716C59.5153 5.68964 59.127 5.56 58.74 5.56V6.36C58.953 6.36 59.1247 6.43036 59.2372 6.54284L59.8028 5.97716ZM58.74 5.56H48.38V6.36H58.74V5.56ZM48.38 5.56C47.8391 5.56 47.4 5.99909 47.4 6.54H48.2C48.2 6.44091 48.2809 6.36 48.38 6.36V5.56ZM47.4 6.54V12.98H48.2V6.54H47.4ZM47.4 12.98V19.44H48.2V12.98H47.4ZM47.4 19.44C47.4 19.9699 47.8482 20.4 48.38 20.4V19.6C48.2718 19.6 48.2 19.5101 48.2 19.44H47.4ZM48.38 20.4H58.74V19.6H48.38V20.4ZM58.74 20.4C59.127 20.4 59.5153 20.2704 59.8028 19.9828L59.2372 19.4172C59.1247 19.5296 58.953 19.6 58.74 19.6V20.4ZM59.79 19.9951L61.67 18.2751L61.13 17.6849L59.25 19.4049L59.79 19.9951ZM82.5911 18.84V19.24H82.9911V18.84H82.5911ZM81.4711 18.84L81.1574 19.0882L81.2775 19.24H81.4711V18.84ZM71.3111 6L71.6248 5.75179L71.6199 5.74564L71.6148 5.73968L71.3111 6ZM69.5311 6.94L69.5234 6.54007L69.1311 6.54762V6.94H69.5311ZM70.5711 6.92L70.885 6.67203L70.7619 6.51626L70.5634 6.52007L70.5711 6.92ZM80.7311 19.78L81.0566 19.5475L81.051 19.5396L81.045 19.532L80.7311 19.78ZM83.1711 5.38C82.6302 5.38 82.1911 5.81909 82.1911 6.36H82.9911C82.9911 6.26091 83.072 6.18 83.1711 6.18V5.38ZM82.1911 6.36V18.84H82.9911V6.36H82.1911ZM82.5911 18.44H81.4711V19.24H82.5911V18.44ZM81.7848 18.5918L71.6248 5.75179L70.9974 6.24821L81.1574 19.0882L81.7848 18.5918ZM71.6148 5.73968C71.4264 5.51994 71.1591 5.38 70.8511 5.38V6.18C70.9031 6.18 70.9557 6.20006 71.0074 6.26032L71.6148 5.73968ZM70.8511 5.38H68.9511V6.18H70.8511V5.38ZM68.9511 5.38C68.4102 5.38 67.9711 5.81909 67.9711 6.36H68.7711C68.7711 6.26091 68.852 6.18 68.9511 6.18V5.38ZM67.9711 6.36V19.42H68.7711V6.36H67.9711ZM67.9711 19.42C67.9711 19.9609 68.4102 20.4 68.9511 20.4V19.6C68.852 19.6 68.7711 19.5191 68.7711 19.42H67.9711ZM68.9511 20.4C69.492 20.4 69.9311 19.9609 69.9311 19.42H69.1311C69.1311 19.5191 69.0502 19.6 68.9511 19.6V20.4ZM69.9311 19.42V6.94H69.1311V19.42H69.9311ZM69.5388 7.33992L70.5788 7.31993L70.5634 6.52007L69.5234 6.54007L69.5388 7.33992ZM70.2572 7.16797L80.4172 20.028L81.045 19.532L70.885 6.67203L70.2572 7.16797ZM80.4056 20.0125C80.5931 20.275 80.9049 20.4 81.1911 20.4V19.6C81.1173 19.6 81.0691 19.565 81.0566 19.5475L80.4056 20.0125ZM81.1911 20.4H83.1711V19.6H81.1911V20.4ZM83.1711 20.4C83.712 20.4 84.1511 19.9609 84.1511 19.42H83.3511C83.3511 19.5191 83.2702 19.6 83.1711 19.6V20.4ZM84.1511 19.42V6.36H83.3511V19.42H84.1511ZM84.1511 6.36C84.1511 5.81909 83.712 5.38 83.1711 5.38V6.18C83.2702 6.18 83.3511 6.26091 83.3511 6.36H84.1511ZM105.044 17.96L104.773 17.6651L104.77 17.6679L105.044 17.96ZM105.044 7.98L104.772 8.27368L104.773 8.27486L105.044 7.98ZM103.184 6.26L103.455 5.96631L103.453 5.96402L103.184 6.26ZM103.184 19.7L103.453 19.996L103.457 19.9921L103.184 19.7ZM91.7038 18.84H91.3038V19.24H91.7038V18.84ZM91.7038 7.1V6.7H91.3038V7.1H91.7038ZM102.404 7.1L102.675 6.80632L102.56 6.7H102.404V7.1ZM104.264 8.82H104.664V8.64508L104.535 8.52632L104.264 8.82ZM104.264 17.12L104.535 17.4137L104.664 17.2949V17.12H104.264ZM102.404 18.84V19.24H102.56L102.675 19.1337L102.404 18.84ZM105.314 18.2549C105.631 17.9645 105.824 17.5599 105.824 17.12H105.024C105.024 17.3201 104.937 17.5155 104.773 17.6651L105.314 18.2549ZM105.824 17.12V8.84H105.024V17.12H105.824ZM105.824 8.84C105.824 8.38383 105.634 7.97813 105.314 7.68514L104.773 8.27486C104.934 8.42187 105.024 8.61617 105.024 8.84H105.824ZM105.315 7.68632L103.455 5.96632L102.912 6.55368L104.772 8.27368L105.315 7.68632ZM103.453 5.96402C103.156 5.69402 102.779 5.56 102.404 5.56V6.36C102.589 6.36 102.772 6.42598 102.915 6.55598L103.453 5.96402ZM102.404 5.56H91.1238V6.36H102.404V5.56ZM91.1238 5.56C90.6015 5.56 90.1438 5.96092 90.1438 6.52H90.9438C90.9438 6.47268 90.9615 6.4364 90.9896 6.40965C91.0189 6.38172 91.0647 6.36 91.1238 6.36V5.56ZM90.1438 6.52V19.42H90.9438V6.52H90.1438ZM90.1438 19.42C90.1438 19.9609 90.5828 20.4 91.1238 20.4V19.6C91.0247 19.6 90.9438 19.5191 90.9438 19.42H90.1438ZM91.1238 20.4H102.384V19.6H91.1238V20.4ZM102.384 20.4C102.775 20.4 103.153 20.2683 103.453 19.996L102.915 19.404C102.774 19.5317 102.593 19.6 102.384 19.6V20.4ZM103.457 19.9921L105.317 18.2521L104.77 17.6679L102.91 19.4079L103.457 19.9921ZM92.1038 18.84V7.1H91.3038V18.84H92.1038ZM91.7038 7.5H102.404V6.7H91.7038V7.5ZM102.132 7.39368L103.992 9.11368L104.535 8.52632L102.675 6.80632L102.132 7.39368ZM103.864 8.82V17.12H104.664V8.82H103.864ZM103.992 16.8263L102.132 18.5463L102.675 19.1337L104.535 17.4137L103.992 16.8263ZM102.404 18.44H102.384V19.24H102.404V18.44ZM102.384 18.44H91.7038V19.24H102.384V18.44ZM114.468 19.7L114.751 19.4172L114.745 19.4109L114.738 19.4049L114.468 19.7ZM125.068 19.7L125.336 19.9973L125.339 19.994L125.068 19.7ZM127.128 17.8L127.399 18.094L127.405 18.0886L127.411 18.0828L127.128 17.8ZM126.168 13.56H126.568V13.16H126.168V13.56ZM126.168 17.12L126.438 17.4151L126.568 17.2962V17.12H126.168ZM124.288 18.84V19.24H124.443L124.558 19.1351L124.288 18.84ZM115.248 18.84L114.978 19.1351L115.093 19.24H115.248V18.84ZM113.368 17.12H112.968V17.2962L113.098 17.4151L113.368 17.12ZM113.368 8.84L113.096 8.54644L112.968 8.66518V8.84H113.368ZM115.248 7.1V6.7H115.091L114.976 6.80644L115.248 7.1ZM124.288 7.1L124.559 6.80597L124.444 6.7H124.288V7.1ZM126.348 9L126.077 9.29403L126.078 9.29486L126.348 9ZM127.168 8.98L127.463 9.25029L127.463 9.25029L127.168 8.98ZM127.128 8.16L126.857 8.45403L126.858 8.45486L127.128 8.16ZM125.068 6.26L124.785 6.54284L124.791 6.54855L124.797 6.55403L125.068 6.26ZM114.468 6.26L114.738 6.55512L114.745 6.54912L114.751 6.54284L114.468 6.26ZM112.588 7.98L112.318 7.68488L112.318 7.68514L112.588 7.98ZM112.588 17.98L112.318 18.2749L112.318 18.2751L112.588 17.98ZM114.185 19.9828C114.473 20.2704 114.861 20.4 115.248 20.4V19.6C115.035 19.6 114.863 19.5296 114.751 19.4172L114.185 19.9828ZM115.248 20.4H124.288V19.6H115.248V20.4ZM124.288 20.4C124.693 20.4 125.067 20.2392 125.336 19.9973L124.801 19.4027C124.669 19.5208 124.483 19.6 124.288 19.6V20.4ZM125.339 19.994L127.399 18.094L126.857 17.506L124.797 19.406L125.339 19.994ZM127.411 18.0828C127.611 17.8829 127.708 17.6189 127.708 17.36H126.908C126.908 17.4211 126.885 17.4771 126.845 17.5172L127.411 18.0828ZM127.708 17.36V12.98H126.908V17.36H127.708ZM127.708 12.98C127.708 12.4482 127.278 12 126.748 12V12.8C126.818 12.8 126.908 12.8718 126.908 12.98H127.708ZM126.748 12H119.768V12.8H126.748V12ZM119.768 12C119.227 12 118.788 12.4391 118.788 12.98H119.588C119.588 12.8809 119.669 12.8 119.768 12.8V12ZM118.788 12.98C118.788 13.5209 119.227 13.96 119.768 13.96V13.16C119.669 13.16 119.588 13.0791 119.588 12.98H118.788ZM119.768 13.96H126.168V13.16H119.768V13.96ZM125.768 13.56V17.12H126.568V13.56H125.768ZM125.898 16.8249L124.018 18.5449L124.558 19.1351L126.438 17.4151L125.898 16.8249ZM124.288 18.44H115.248V19.24H124.288V18.44ZM115.518 18.5449L113.638 16.8249L113.098 17.4151L114.978 19.1351L115.518 18.5449ZM113.768 17.12V8.84H112.968V17.12H113.768ZM113.64 9.13356L115.52 7.39356L114.976 6.80644L113.096 8.54644L113.64 9.13356ZM115.248 7.5H124.288V6.7H115.248V7.5ZM124.017 7.39403L126.077 9.29403L126.619 8.70597L124.559 6.80597L124.017 7.39403ZM126.078 9.29486C126.466 9.65045 127.08 9.66768 127.463 9.25029L126.873 8.70971C126.84 8.74627 126.8 8.76186 126.759 8.76256C126.716 8.76329 126.664 8.74729 126.618 8.70514L126.078 9.29486ZM127.463 9.25029C127.836 8.84337 127.797 8.23065 127.398 7.86514L126.858 8.45486C126.939 8.52935 126.94 8.63663 126.873 8.70971L127.463 9.25029ZM127.399 7.86597L125.339 5.96597L124.797 6.55403L126.857 8.45403L127.399 7.86597ZM125.351 5.97716C125.063 5.68964 124.675 5.56 124.288 5.56V6.36C124.501 6.36 124.673 6.43036 124.785 6.54284L125.351 5.97716ZM124.288 5.56H115.248V6.36H124.288V5.56ZM115.248 5.56C114.861 5.56 114.473 5.68964 114.185 5.97716L114.751 6.54284C114.863 6.43036 115.035 6.36 115.248 6.36V5.56ZM114.198 5.96488L112.318 7.68488L112.858 8.27512L114.738 6.55512L114.198 5.96488ZM112.318 7.68514C111.984 7.99161 111.828 8.42476 111.828 8.84H112.628C112.628 8.61524 112.713 8.40839 112.858 8.27486L112.318 7.68514ZM111.828 8.84V17.12H112.628V8.84H111.828ZM111.828 17.12C111.828 17.5352 111.984 17.9684 112.318 18.2749L112.858 17.6851C112.713 17.5516 112.628 17.3448 112.628 17.12H111.828ZM112.318 18.2751L114.198 19.9951L114.738 19.4049L112.858 17.6849L112.318 18.2751ZM148.147 19.42H148.547V19.2543L148.43 19.1372L148.147 19.42ZM147.567 18.84L147.85 18.5572L147.733 18.44H147.567V18.84ZM145.887 18.84L145.528 19.0164L145.638 19.24H145.887V18.84ZM143.607 14.2V13.8H142.965L143.248 14.3764L143.607 14.2ZM145.847 13.9L145.577 13.6049L145.571 13.6109L145.565 13.6172L145.847 13.9ZM147.727 12.18L147.997 12.4751L148.004 12.4691L148.01 12.4628L147.727 12.18ZM147.727 7.98L148.01 7.69716L148.004 7.69087L147.997 7.68488L147.727 7.98ZM145.847 6.26L145.565 6.54284L145.571 6.54912L145.577 6.55512L145.847 6.26ZM135.287 14.2V13.8H134.887V14.2H135.287ZM142.327 14.2L142.686 14.0233L142.576 13.8H142.327V14.2ZM144.947 19.52L145.327 19.3935L145.318 19.3677L145.306 19.3433L144.947 19.52ZM145.067 19.7L144.785 19.9828L144.791 19.9896L144.798 19.996L145.067 19.7ZM135.287 13.06H134.887V13.46H135.287V13.06ZM135.287 7.1V6.7H134.887V7.1H135.287ZM145.067 7.1L145.341 6.80789L145.225 6.7H145.067V7.1ZM146.927 8.84L147.327 8.83677L147.326 8.66514L147.201 8.54789L146.927 8.84ZM146.947 11.32V11.72H147.351L147.347 11.3168L146.947 11.32ZM146.927 11.34L147.197 11.6353L147.327 11.5163V11.34H146.927ZM145.067 13.04L144.797 12.7447L144.667 12.8637V13.04H145.067ZM145.067 13.06V13.46H145.467V13.06H145.067ZM148.43 19.1372L147.85 18.5572L147.285 19.1228L147.865 19.7028L148.43 19.1372ZM147.567 18.44H145.887V19.24H147.567V18.44ZM146.246 18.6636L143.966 14.0236L143.248 14.3764L145.528 19.0164L146.246 18.6636ZM143.607 14.6H145.067V13.8H143.607V14.6ZM145.067 14.6C145.454 14.6 145.843 14.4704 146.13 14.1828L145.565 13.6172C145.452 13.7296 145.28 13.8 145.067 13.8V14.6ZM146.117 14.1951L147.997 12.4751L147.457 11.8849L145.577 13.6049L146.117 14.1951ZM148.01 12.4628C148.302 12.1712 148.487 11.7507 148.487 11.32H147.687C147.687 11.5293 147.593 11.7488 147.445 11.8972L148.01 12.4628ZM148.487 11.32V8.84H147.687V11.32H148.487ZM148.487 8.84C148.487 8.40929 148.302 7.98883 148.01 7.69716L147.445 8.26284C147.593 8.41116 147.687 8.63071 147.687 8.84H148.487ZM147.997 7.68488L146.117 5.96488L145.577 6.55512L147.457 8.27512L147.997 7.68488ZM146.13 5.97716C145.843 5.68964 145.454 5.56 145.067 5.56V6.36C145.28 6.36 145.452 6.43036 145.565 6.54284L146.13 5.97716ZM145.067 5.56H134.707V6.36H145.067V5.56ZM134.707 5.56C134.185 5.56 133.727 5.96092 133.727 6.52H134.527C134.527 6.47268 134.545 6.4364 134.573 6.40965C134.603 6.38172 134.648 6.36 134.707 6.36V5.56ZM133.727 6.52V19.42H134.527V6.52H133.727ZM133.727 19.42C133.727 19.9609 134.166 20.4 134.707 20.4V19.6C134.608 19.6 134.527 19.5191 134.527 19.42H133.727ZM134.707 20.4C135.248 20.4 135.687 19.9609 135.687 19.42H134.887C134.887 19.5191 134.806 19.6 134.707 19.6V20.4ZM135.687 19.42V14.2H134.887V19.42H135.687ZM135.287 14.6H142.327V13.8H135.287V14.6ZM141.969 14.3767L144.589 19.6967L145.306 19.3433L142.686 14.0233L141.969 14.3767ZM144.568 19.6465C144.613 19.782 144.695 19.8932 144.785 19.9828L145.35 19.4172C145.336 19.4026 145.328 19.3928 145.325 19.3881C145.322 19.3836 145.324 19.3855 145.327 19.3935L144.568 19.6465ZM144.798 19.996C145.095 20.266 145.473 20.4 145.847 20.4V19.6C145.662 19.6 145.479 19.534 145.336 19.404L144.798 19.996ZM145.847 20.4H147.567V19.6H145.847V20.4ZM147.567 20.4C148.108 20.4 148.547 19.9609 148.547 19.42H147.747C147.747 19.5191 147.666 19.6 147.567 19.6V20.4ZM135.687 13.06V7.1H134.887V13.06H135.687ZM135.287 7.5H145.067V6.7H135.287V7.5ZM144.794 7.39211L146.654 9.13211L147.201 8.54789L145.341 6.80789L144.794 7.39211ZM146.527 8.84323L146.547 11.3232L147.347 11.3168L147.327 8.83677L146.527 8.84323ZM146.947 11.32C146.947 10.92 146.947 10.92 146.947 10.92C146.947 10.92 146.947 10.92 146.947 10.92C146.946 10.92 146.946 10.92 146.946 10.92C146.945 10.92 146.945 10.92 146.944 10.92C146.943 10.92 146.942 10.92 146.941 10.9201C146.939 10.9201 146.936 10.9201 146.934 10.9202C146.929 10.9204 146.924 10.9207 146.918 10.9211C146.907 10.9219 146.893 10.9233 146.878 10.9258C146.85 10.9304 146.807 10.9405 146.758 10.9647C146.709 10.9897 146.646 11.0334 146.598 11.1065C146.547 11.1822 146.527 11.265 146.527 11.34H147.327C147.327 11.405 147.31 11.4803 147.263 11.5503C147.218 11.6178 147.161 11.6578 147.116 11.6803C147.073 11.702 147.034 11.7108 147.01 11.7149C146.997 11.7171 146.985 11.7183 146.975 11.719C146.97 11.7194 146.965 11.7196 146.96 11.7198C146.958 11.7199 146.956 11.7199 146.954 11.7199C146.953 11.72 146.952 11.72 146.951 11.72C146.95 11.72 146.949 11.72 146.949 11.72C146.949 11.72 146.948 11.72 146.948 11.72C146.948 11.72 146.948 11.72 146.948 11.72C146.948 11.72 146.947 11.72 146.947 11.32ZM146.657 11.0447L144.797 12.7447L145.337 13.3353L147.197 11.6353L146.657 11.0447ZM144.667 13.04V13.06H145.467V13.04H144.667ZM145.067 12.66H135.287V13.46H145.067V12.66ZM166.232 6.36L165.925 6.61607L165.933 6.62571L165.942 6.63483L166.232 6.36ZM156.972 6.36L157.265 6.63317L157.267 6.63029L156.972 6.36ZM155.252 8.2L154.96 7.92682L154.956 7.93093L155.252 8.2ZM156.092 14.24V13.84H155.692V14.24H156.092ZM167.112 14.24H167.512V13.84H167.112V14.24ZM167.972 8.2L168.282 7.9467L168.273 7.93559L168.263 7.92516L167.972 8.2ZM156.112 9V9.4H156.289L156.408 9.26986L156.112 9ZM157.812 7.14L158.108 7.40986L158.212 7.29526V7.14H157.812ZM165.412 7.14H165.012V7.29526L165.117 7.40986L165.412 7.14ZM167.112 9H167.512V8.84474L167.408 8.73014L167.112 9ZM167.112 13.08V13.48H167.512V13.08H167.112ZM156.092 13.08H155.692V13.48H156.092V13.08ZM156.092 9V8.6H155.692V9H156.092ZM156.092 13.18V12.78H155.692V13.18H156.092ZM156.092 13.2H155.692V13.6H156.092V13.2ZM167.112 13.2V13.6H167.512V13.2H167.112ZM167.112 13.18H167.512V12.78H167.112V13.18ZM156.092 14.12L156.45 13.9411L155.692 14.12H156.092ZM156.092 14.18H155.692V15.1457L156.375 14.4628L156.092 14.18ZM167.112 14.18L166.829 14.4628L167.512 15.1457V14.18H167.112ZM167.112 14.12H167.512L166.755 13.9411L167.112 14.12ZM166.54 6.10393C166.247 5.75307 165.803 5.6 165.392 5.6V6.4C165.622 6.4 165.817 6.48693 165.925 6.61607L166.54 6.10393ZM165.392 5.6H157.832V6.4H165.392V5.6ZM157.832 5.6C157.393 5.6 156.982 5.75781 156.677 6.08971L157.267 6.63029C157.403 6.48219 157.591 6.4 157.832 6.4V5.6ZM156.68 6.08685L154.96 7.92685L155.545 8.47315L157.265 6.63315L156.68 6.08685ZM154.956 7.93093C154.684 8.23046 154.552 8.60876 154.552 9H155.352C155.352 8.79124 155.421 8.60954 155.548 8.46907L154.956 7.93093ZM154.552 9V19.44H155.352V9H154.552ZM154.552 19.44C154.552 19.9902 155.001 20.4 155.512 20.4V19.6C155.424 19.6 155.352 19.5298 155.352 19.44H154.552ZM155.512 20.4C156.035 20.4 156.492 19.9991 156.492 19.44H155.692C155.692 19.4873 155.675 19.5236 155.646 19.5503C155.617 19.5783 155.571 19.6 155.512 19.6V20.4ZM156.492 19.44V14.24H155.692V19.44H156.492ZM156.092 14.64H167.112V13.84H156.092V14.64ZM166.712 14.24V19.44H167.512V14.24H166.712ZM166.712 19.44C166.712 19.9991 167.17 20.4 167.692 20.4V19.6C167.633 19.6 167.588 19.5783 167.558 19.5503C167.53 19.5236 167.512 19.4873 167.512 19.44H166.712ZM167.692 20.4C168.215 20.4 168.672 19.9991 168.672 19.44H167.872C167.872 19.4873 167.855 19.5236 167.826 19.5503C167.797 19.5783 167.751 19.6 167.692 19.6V20.4ZM168.672 19.44V9H167.872V19.44H168.672ZM168.672 9C168.672 8.59242 168.51 8.2254 168.282 7.9467L167.663 8.45329C167.795 8.61459 167.872 8.80758 167.872 9H168.672ZM168.263 7.92516L166.523 6.08516L165.942 6.63483L167.682 8.47483L168.263 7.92516ZM156.408 9.26986L158.108 7.40986L157.517 6.87014L155.817 8.73014L156.408 9.26986ZM158.212 7.14C158.212 7.12523 158.213 7.14806 158.21 7.17261C158.208 7.1942 158.196 7.30745 158.098 7.40534C158 7.50322 157.887 7.51546 157.865 7.51786C157.84 7.52059 157.818 7.52 157.832 7.52V6.72C157.831 6.72 157.824 6.71998 157.818 6.72012C157.811 6.72025 157.796 6.72064 157.777 6.72276C157.749 6.72578 157.632 6.73928 157.532 6.83966C157.432 6.94004 157.418 7.05705 157.415 7.08427C157.413 7.10328 157.413 7.11877 157.412 7.12524C157.412 7.13207 157.412 7.13872 157.412 7.14H158.212ZM157.832 7.52H165.392V6.72H157.832V7.52ZM165.392 7.12C165.392 7.52 165.392 7.52 165.392 7.52C165.392 7.52 165.392 7.52 165.392 7.52C165.391 7.52 165.391 7.52 165.391 7.52C165.39 7.51999 165.39 7.51999 165.389 7.51999C165.388 7.51998 165.387 7.51997 165.386 7.51995C165.384 7.51991 165.382 7.51986 165.379 7.51978C165.375 7.51963 165.37 7.51939 165.365 7.51902C165.355 7.5183 165.343 7.51705 165.33 7.51487C165.305 7.51081 165.267 7.50196 165.223 7.48027C165.178 7.45779 165.121 7.41779 165.076 7.35031C165.03 7.28032 165.012 7.20499 165.012 7.14H165.812C165.812 7.06501 165.792 6.98218 165.742 6.90657C165.693 6.83346 165.631 6.78971 165.581 6.76473C165.533 6.74054 165.489 6.73043 165.461 6.72575C165.446 6.72326 165.433 6.72185 165.422 6.72105C165.416 6.72065 165.411 6.72039 165.406 6.72023C165.403 6.72014 165.401 6.72009 165.399 6.72005C165.398 6.72003 165.397 6.72002 165.396 6.72001C165.395 6.72001 165.394 6.72 165.394 6.72C165.394 6.72 165.393 6.72 165.393 6.72C165.393 6.72 165.393 6.72 165.393 6.72C165.393 6.72 165.392 6.72 165.392 7.12ZM165.117 7.40986L166.817 9.26986L167.408 8.73014L165.708 6.87014L165.117 7.40986ZM166.712 9V13.08H167.512V9H166.712ZM167.112 12.68H156.092V13.48H167.112V12.68ZM156.492 13.08V9H155.692V13.08H156.492ZM156.092 9.4H156.112V8.6H156.092V9.4ZM156.092 13.58C155.996 13.58 155.707 13.505 155.707 13.19C155.707 12.875 155.996 12.8 156.092 12.8V13.6C156.209 13.6 156.507 13.515 156.507 13.19C156.507 12.865 156.209 12.78 156.092 12.78V13.58ZM156.492 13.2V13.18H155.692V13.2H156.492ZM167.112 12.8C167.209 12.8 167.497 12.875 167.497 13.19C167.497 13.505 167.209 13.58 167.112 13.58V12.78C166.996 12.78 166.697 12.865 166.697 13.19C166.697 13.515 166.996 13.6 167.112 13.6V12.8ZM166.712 13.18V13.2H167.512V13.18H166.712ZM155.735 14.2989C155.742 14.3139 155.739 14.3076 155.735 14.2987C155.733 14.2936 155.707 14.2369 155.707 14.1575C155.707 14.0548 155.748 13.9773 155.78 13.9325C155.8 13.9047 155.823 13.8832 155.81 13.8972L156.375 14.4628C156.376 14.4616 156.383 14.4548 156.39 14.4475C156.397 14.4401 156.412 14.4244 156.427 14.4031C156.465 14.3515 156.507 14.2677 156.507 14.1575C156.507 14.0706 156.479 14.0051 156.472 13.9882C156.463 13.9674 156.453 13.9461 156.45 13.9411L155.735 14.2989ZM156.492 14.18V14.12H155.692V14.18H156.492ZM167.395 13.8972C167.381 13.8832 167.404 13.9047 167.425 13.9325C167.457 13.9773 167.497 14.0548 167.497 14.1575C167.497 14.2369 167.472 14.2936 167.47 14.2987C167.466 14.3076 167.463 14.3139 167.47 14.2989L166.755 13.9411C166.752 13.9461 166.741 13.9674 166.732 13.9882C166.725 14.0051 166.697 14.0706 166.697 14.1575C166.697 14.2677 166.74 14.3515 166.778 14.4031C166.793 14.4244 166.808 14.4401 166.814 14.4475C166.821 14.4548 166.828 14.4616 166.829 14.4628L167.395 13.8972ZM166.712 14.12V14.18H167.512V14.12H166.712ZM176.234 13.38V12.98H175.834V13.38H176.234ZM176.234 12.24H175.834V12.64H176.234V12.24ZM176.234 6.94V6.54H175.834V6.94H176.234ZM186.014 6.94L186.284 6.64488L186.17 6.54H186.014V6.94ZM187.894 8.66L188.177 8.37716L188.171 8.37087L188.164 8.36488L187.894 8.66ZM188.694 8.64L188.399 8.36971L188.393 8.37667L188.387 8.38393L188.694 8.64ZM188.674 7.82L188.957 7.53716L188.952 7.53163L188.946 7.52632L188.674 7.82ZM186.814 6.1L187.086 5.80631L187.083 5.80402L186.814 6.1ZM176.234 13.78H186.074V12.98H176.234V13.78ZM186.074 13.78C186.606 13.78 187.054 13.3499 187.054 12.82H186.254C186.254 12.8901 186.182 12.98 186.074 12.98V13.78ZM187.054 12.82C187.054 12.2791 186.615 11.84 186.074 11.84V12.64C186.173 12.64 186.254 12.7209 186.254 12.82H187.054ZM186.074 11.84H176.234V12.64H186.074V11.84ZM176.634 12.24V6.94H175.834V12.24H176.634ZM176.234 7.34H186.014V6.54H176.234V7.34ZM185.744 7.23512L187.624 8.95512L188.164 8.36488L186.284 6.64488L185.744 7.23512ZM187.611 8.94284C187.982 9.31309 188.637 9.33379 189.002 8.89607L188.387 8.38393C188.37 8.40458 188.34 8.4218 188.295 8.42256C188.249 8.42334 188.205 8.40553 188.177 8.37716L187.611 8.94284ZM188.989 8.91029C189.36 8.50585 189.322 7.9022 188.957 7.53716L188.391 8.10284C188.466 8.1778 188.469 8.29415 188.399 8.36971L188.989 8.91029ZM188.946 7.52632L187.086 5.80632L186.543 6.39368L188.403 8.11368L188.946 7.52632ZM187.083 5.80402C186.797 5.54416 186.424 5.38 186.014 5.38V6.18C186.205 6.18 186.391 6.25584 186.545 6.39597L187.083 5.80402ZM186.014 5.38H175.654V6.18H186.014V5.38ZM175.654 5.38C175.113 5.38 174.674 5.81909 174.674 6.36H175.474C175.474 6.26091 175.555 6.18 175.654 6.18V5.38ZM174.674 6.36V12.8H175.474V6.36H174.674ZM175.074 12.8C175.074 12.8 174.674 12.8 174.674 12.8V12.8V12.8C174.674 12.8 174.674 12.8 174.674 12.8V12.8C174.674 12.8 174.674 12.8 174.674 12.8C174.674 12.8 174.674 12.8 174.674 12.8V12.8C174.674 12.8 174.674 12.8 174.674 12.8V12.8C174.674 12.8 174.674 12.8 174.674 12.8C174.674 12.8 174.674 12.8 174.674 12.8V12.8V12.8C174.674 12.8 174.674 12.8 174.674 12.8C174.674 12.8 174.674 12.8 174.674 12.8C174.674 12.8 174.674 12.8 174.674 12.8C174.674 12.8 174.674 12.8 174.674 12.8V12.8V12.8V12.8C174.674 12.8 174.674 12.8 174.674 12.8C174.674 12.8 174.674 12.8 174.674 12.8V12.8C174.674 12.8 174.674 12.8 174.674 12.8C174.674 12.8 174.674 12.8 174.674 12.8V12.8C174.674 12.8 174.674 12.8 174.674 12.8C174.674 12.8 174.674 12.8 174.674 12.8V12.8C174.674 12.8 174.674 12.8 174.674 12.8C174.674 12.8 174.674 12.8 174.674 12.8C174.674 12.8 174.674 12.8 174.674 12.8V12.8C174.674 12.8 174.674 12.8 174.674 12.8C174.674 12.8 174.674 12.8 174.674 12.8C174.674 12.8 174.674 12.8 174.674 12.8C174.674 12.8 174.674 12.8 174.674 12.8C174.674 12.8 174.674 12.8 174.674 12.8C174.674 12.8 174.674 12.8 174.674 12.8001C174.674 12.8001 174.674 12.8001 174.674 12.8001C174.674 12.8001 174.674 12.8001 174.674 12.8001C174.674 12.8001 174.674 12.8001 174.674 12.8001C174.674 12.8001 174.674 12.8001 174.674 12.8001C174.674 12.8001 174.674 12.8001 174.674 12.8001C174.674 12.8001 174.674 12.8001 174.674 12.8001C174.674 12.8001 174.674 12.8001 174.674 12.8001C174.674 12.8001 174.674 12.8001 174.674 12.8001C174.674 12.8001 174.674 12.8001 174.674 12.8001C174.674 12.8001 174.674 12.8001 174.674 12.8001C174.674 12.8001 174.674 12.8001 174.674 12.8001C174.674 12.8001 174.674 12.8001 174.674 12.8001C174.674 12.8001 174.674 12.8001 174.674 12.8001C174.674 12.8001 174.674 12.8001 174.674 12.8001C174.674 12.8001 174.674 12.8001 174.674 12.8001C174.674 12.8001 174.674 12.8001 174.674 12.8001C174.674 12.8001 174.674 12.8001 174.674 12.8001C174.674 12.8001 174.674 12.8001 174.674 12.8001C174.674 12.8001 174.674 12.8001 174.674 12.8001C174.674 12.8001 174.674 12.8001 174.674 12.8001C174.674 12.8001 174.674 12.8001 174.674 12.8001C174.674 12.8001 174.674 12.8001 174.674 12.8001C174.674 12.8001 174.674 12.8001 174.674 12.8001C174.674 12.8001 174.674 12.8001 174.674 12.8001C174.674 12.8001 174.674 12.8001 174.674 12.8001C174.674 12.8001 174.674 12.8001 174.674 12.8001C174.674 12.8001 174.674 12.8001 174.674 12.8001C174.674 12.8001 174.674 12.8001 174.674 12.8001C174.674 12.8001 174.674 12.8001 174.674 12.8001C174.674 12.8001 174.674 12.8001 174.674 12.8001C174.674 12.8001 174.674 12.8002 174.674 12.8002C174.674 12.8002 174.674 12.8002 174.674 12.8002C174.674 12.8002 174.674 12.8002 174.674 12.8002C174.674 12.8002 174.674 12.8002 174.674 12.8002C174.674 12.8002 174.674 12.8002 174.674 12.8002C174.674 12.8002 174.674 12.8002 174.674 12.8002C174.674 12.8002 174.674 12.8002 174.674 12.8002C174.674 12.8002 174.674 12.8002 174.674 12.8002C174.674 12.8002 174.674 12.8002 174.674 12.8002C174.674 12.8002 174.674 12.8002 174.674 12.8002C174.674 12.8002 174.674 12.8002 174.674 12.8002C174.674 12.8002 174.674 12.8002 174.674 12.8002C174.674 12.8002 174.674 12.8002 174.674 12.8002C174.674 12.8002 174.674 12.8002 174.674 12.8002C174.674 12.8002 174.674 12.8002 174.674 12.8002C174.674 12.8002 174.674 12.8002 174.674 12.8002C174.674 12.8002 174.674 12.8002 174.674 12.8002C174.674 12.8002 174.674 12.8002 174.674 12.8002C174.674 12.8002 174.674 12.8002 174.674 12.8003C174.674 12.8003 174.674 12.8003 174.674 12.8003C174.674 12.8003 174.674 12.8003 174.674 12.8003C174.674 12.8003 174.674 12.8003 174.674 12.8003C174.674 12.8003 174.674 12.8003 174.674 12.8003C174.674 12.8003 174.674 12.8003 174.674 12.8003C174.674 12.8003 174.674 12.8003 174.674 12.8003C174.674 12.8003 174.674 12.8003 174.674 12.8003C174.674 12.8003 174.674 12.8003 174.674 12.8003C174.674 12.8003 174.674 12.8003 174.674 12.8003C174.674 12.8003 174.674 12.8003 174.674 12.8003C174.674 12.8003 174.674 12.8003 174.674 12.8003C174.674 12.8003 174.674 12.8003 174.674 12.8003C174.674 12.8003 174.674 12.8003 174.674 12.8003C174.674 12.8003 174.674 12.8003 174.674 12.8004C174.674 12.8004 174.674 12.8004 174.674 12.8004C174.674 12.8004 174.674 12.8004 174.674 12.8004C174.674 12.8004 174.674 12.8004 174.674 12.8004C174.674 12.8004 174.674 12.8004 174.674 12.8004C174.674 12.8004 174.674 12.8004 174.674 12.8004C174.674 12.8004 174.674 12.8004 174.674 12.8004C174.674 12.8004 174.674 12.8004 174.674 12.8004C174.674 12.8004 174.674 12.8004 174.674 12.8004C174.674 12.8004 174.674 12.8004 174.674 12.8004C174.674 12.8004 174.674 12.8004 174.674 12.8004C174.674 12.8004 174.674 12.8004 174.674 12.8004C174.674 12.8004 174.674 12.8005 174.674 12.8005C174.674 12.8005 174.674 12.8005 174.674 12.8005C174.674 12.8005 174.674 12.8005 174.674 12.8005C174.674 12.8005 174.674 12.8005 174.674 12.8005C174.674 12.8005 174.674 12.8005 174.674 12.8005C174.674 12.8005 174.674 12.8005 174.674 12.8005C174.674 12.8005 174.674 12.8005 174.674 12.8005C174.674 12.8005 174.674 12.8005 174.674 12.8005C174.674 12.8005 174.674 12.8005 174.674 12.8005C174.674 12.8005 174.674 12.8005 174.674 12.8005C174.674 12.8005 174.674 12.8006 174.674 12.8006C174.674 12.8006 174.674 12.8006 174.674 12.8006C174.674 12.8006 174.674 12.8006 174.674 12.8006C174.674 12.8006 174.674 12.8006 174.674 12.8006C174.674 12.8006 174.674 12.8006 174.674 12.8006C174.674 12.8006 174.674 12.8006 174.674 12.8006C174.674 12.8006 174.674 12.8006 174.674 12.8006C174.674 12.8006 174.674 12.8006 174.674 12.8006C174.674 12.8006 174.674 12.8006 174.674 12.8006C174.674 12.8006 174.674 12.8007 174.674 12.8007C174.674 12.8007 174.674 12.8007 174.674 12.8007C174.674 12.8007 174.674 12.8007 174.674 12.8007C174.674 12.8007 174.674 12.8007 174.674 12.8007C174.674 12.8007 174.674 12.8007 174.674 12.8007C174.674 12.8007 174.674 12.8007 174.674 12.8007C174.674 12.8007 174.674 12.8007 174.674 12.8007C174.674 12.8007 174.674 12.8007 174.674 12.8007C174.674 12.8007 174.674 12.8008 174.674 12.8008C174.674 12.8008 174.674 12.8008 174.674 12.8008C174.674 12.8008 174.674 12.8008 174.674 12.8008C174.674 12.8008 174.674 12.8008 174.674 12.8008C174.674 12.8008 174.674 12.8008 174.674 12.8008C174.674 12.8008 174.674 12.8008 174.674 12.8008C174.674 12.8008 174.674 12.8008 174.674 12.8008C174.674 12.8008 174.674 12.8008 174.674 12.8009C174.674 12.8009 174.674 12.8009 174.674 12.8009C174.674 12.8009 174.674 12.8009 174.674 12.8009C174.674 12.8009 174.674 12.8009 174.674 12.8009C174.674 12.8009 174.674 12.8009 174.674 12.8009C174.674 12.8009 174.674 12.8009 174.674 12.8009C174.674 12.8009 174.674 12.8009 174.674 12.8009C174.674 12.8009 174.674 12.801 174.674 12.801C174.674 12.801 174.674 12.801 174.674 12.801C174.674 12.801 174.674 12.801 174.674 12.801C174.674 12.801 174.674 12.801 174.674 12.801C174.674 12.801 174.674 12.801 174.674 12.801C174.674 12.801 174.674 12.801 174.674 12.801C174.674 12.801 174.674 12.801 174.674 12.8011C174.674 12.8011 174.674 12.8011 174.674 12.8011C174.674 12.8011 174.674 12.8011 174.674 12.8011C174.674 12.8011 174.674 12.8011 174.674 12.8011C174.674 12.8011 174.674 12.8011 174.674 12.8011C174.674 12.8011 174.674 12.8011 174.674 12.8011C174.674 12.8011 174.674 12.8012 174.674 12.8012C174.674 12.8012 174.674 12.8012 174.674 12.8012C174.674 12.8012 174.674 12.8012 174.674 12.8012C174.674 12.8012 174.674 12.8012 174.674 12.8012C174.674 12.8012 174.674 12.8012 174.674 12.8012C174.674 12.8012 174.674 12.8012 174.674 12.8012C174.674 12.8013 174.674 12.8013 174.674 12.8013C174.674 12.8013 174.674 12.8013 174.674 12.8013C174.674 12.8013 174.674 12.8013 174.674 12.8013C174.674 12.8013 174.674 12.8013 174.674 12.8013C174.674 12.8013 174.674 12.8013 174.674 12.8013C174.674 12.8013 174.674 12.8014 174.674 12.8014C174.674 12.8014 174.674 12.8014 174.674 12.8014C174.674 12.8014 174.674 12.8014 174.674 12.8014C174.674 12.8014 174.674 12.8014 174.674 12.8014C174.674 12.8014 174.674 12.8014 174.674 12.8014C174.674 12.8014 174.674 12.8015 174.674 12.8015C174.674 12.8015 174.674 12.8015 174.674 12.8015C174.674 12.8015 174.674 12.8015 174.674 12.8015C174.674 12.8015 174.674 12.8015 174.674 12.8015C174.674 12.8015 174.674 12.8015 174.674 12.8015C174.674 12.8016 174.674 12.8016 174.674 12.8016C174.674 12.8016 174.674 12.8016 174.674 12.8016C174.674 12.8016 174.674 12.8016 174.674 12.8016C174.674 12.8016 174.674 12.8016 174.674 12.8016C174.674 12.8016 174.674 12.8016 174.674 12.8017C174.674 12.8017 174.674 12.8017 174.674 12.8017C174.674 12.8017 174.674 12.8017 174.674 12.8017C174.674 12.8017 174.674 12.8017 174.674 12.8017C174.674 12.8017 174.674 12.8017 174.674 12.8017C174.674 12.8018 174.674 12.8018 174.674 12.8018C174.674 12.8018 174.674 12.8018 174.674 12.8018C174.674 12.8018 174.674 12.8018 174.674 12.8018C174.674 12.8018 174.674 12.8018 174.674 12.8018C174.674 12.8018 174.674 12.8019 174.674 12.8019C174.674 12.8019 174.674 12.8019 174.674 12.8019C174.674 12.8019 174.674 12.8019 174.674 12.8019C174.674 12.8019 174.674 12.8019 174.674 12.8019C174.674 12.8019 174.674 12.802 174.674 12.802C174.674 12.802 174.674 12.802 174.674 12.802C174.674 12.802 174.674 12.802 174.674 12.802C174.674 12.802 174.674 12.802 174.674 12.802C174.674 12.802 174.674 12.8021 174.674 12.8021C174.674 12.8021 174.674 12.8021 174.674 12.8021C174.674 12.8021 174.674 12.8021 174.674 12.8021C174.674 12.8021 174.674 12.8021 174.674 12.8021C174.674 12.8021 174.674 12.8022 174.674 12.8022C174.674 12.8022 174.674 12.8022 174.674 12.8022C174.674 12.8022 174.674 12.8022 174.674 12.8022C174.674 12.8022 174.674 12.8022 174.674 12.8022C174.674 12.8023 174.674 12.8023 174.674 12.8023C174.674 12.8023 174.674 12.8023 174.674 12.8023C174.674 12.8023 174.674 12.8023 174.674 12.8023C174.674 12.8023 174.674 12.8023 174.674 12.8024C174.674 12.8024 174.674 12.8024 174.674 12.8024C174.674 12.8024 174.674 12.8024 174.674 12.8024C174.674 12.8024 174.674 12.8024 174.674 12.8024C174.674 12.8025 174.674 12.8025 174.674 12.8025C174.674 12.8025 174.674 12.8025 174.674 12.8025C174.674 12.8025 174.674 12.8025 174.674 12.8025C174.674 12.8025 174.674 12.8025 174.674 12.8026C174.674 12.8026 174.674 12.8026 174.674 12.8026C174.674 12.8026 174.674 12.8026 174.674 12.8026C174.674 12.8026 174.674 12.8026 174.674 12.8026C174.674 12.8027 174.674 12.8027 174.674 12.8027C174.674 12.8027 174.674 12.8027 174.674 12.8027C174.674 12.8027 174.674 12.8027 174.674 12.8027C174.674 12.8028 174.674 12.8028 174.674 12.8028C174.674 12.8028 174.674 12.8028 174.674 12.8028C174.674 12.8028 174.674 12.8028 174.674 12.8028C174.674 12.8028 174.674 12.8029 174.674 12.8029C174.674 12.8029 174.674 12.8029 174.674 12.8029C174.674 12.8029 174.674 12.8029 174.674 12.8029C174.674 12.8029 174.674 12.803 174.674 12.803C174.674 12.803 174.674 12.803 174.674 12.803C174.674 12.803 174.674 12.803 174.674 12.803C174.674 12.803 174.674 12.8031 174.674 12.8031C174.674 12.8031 174.674 12.8031 174.674 12.8031C174.674 12.8031 174.674 12.8031 174.674 12.8031C174.674 12.8031 174.674 12.8032 174.674 12.8032C174.674 12.8032 174.674 12.8032 174.674 12.8032C174.674 12.8032 174.674 12.8032 174.674 12.8032C174.674 12.8032 174.674 12.8033 174.674 12.8033C174.674 12.8033 174.674 12.8033 174.674 12.8033C174.674 12.8033 174.674 12.8033 174.674 12.8033C174.674 12.8034 174.674 12.8034 174.674 12.8034C174.674 12.8034 174.674 12.8034 174.674 12.8034C174.674 12.8034 174.674 12.8034 174.674 12.8034C174.674 12.8035 174.674 12.8035 174.674 12.8035C174.674 12.8035 174.674 12.8035 174.674 12.8035C174.674 12.8035 174.674 12.8035 174.674 12.8036C174.674 12.8036 174.674 12.8036 174.674 12.8036C174.674 12.8036 174.674 12.8036 174.674 12.8036C174.674 12.8036 174.674 12.8037 174.674 12.8037C174.674 12.8037 174.674 12.8037 174.674 12.8037C174.674 12.8037 174.674 12.8037 174.674 12.8037C174.674 12.8038 174.674 12.8038 174.674 12.8038C174.674 12.8038 174.674 12.8038 174.674 12.8038C174.674 12.8038 174.674 12.8039 174.674 12.8039C174.674 12.8039 174.674 12.8039 174.674 12.8039C174.674 12.8039 174.674 12.8039 174.674 12.8039C174.674 12.804 174.674 12.804 174.674 12.804C174.674 12.804 174.674 12.804 174.674 12.804C174.674 12.804 174.674 12.804 174.674 12.8041C174.674 12.8041 174.674 12.8041 174.674 12.8041C174.674 12.8041 174.674 12.8041 174.674 12.8041C174.674 12.8042 174.674 12.8042 174.674 12.8042C174.674 12.8042 174.674 12.8042 174.674 12.8042C174.674 12.8042 174.674 12.8043 174.674 12.8043C174.674 12.8043 174.674 12.8043 174.674 12.8043C174.674 12.8043 174.674 12.8043 174.674 12.8044C174.674 12.8044 174.674 12.8044 174.674 12.8044C174.674 12.8044 174.674 12.8044 174.674 12.8044C174.674 12.8045 174.674 12.8045 174.674 12.8045C174.674 12.8045 174.674 12.8045 174.674 12.8045C174.674 12.8045 174.674 12.8046 174.674 12.8046C174.674 12.8046 174.674 12.8046 174.674 12.8046C174.674 12.8046 174.674 12.8046 174.674 12.8047C174.674 12.8047 174.674 12.8047 174.674 12.8047C174.674 12.8047 174.674 12.8047 174.674 12.8047C174.674 12.8048 174.674 12.8048 174.674 12.8048C174.674 12.8048 174.674 12.8048 174.674 12.8048C174.674 12.8049 174.674 12.8049 174.674 12.8049C174.674 12.8049 174.674 12.8049 174.674 12.8049C174.674 12.8049 174.674 12.805 174.674 12.805C174.674 12.805 174.674 12.805 174.674 12.805C174.674 12.805 174.674 12.8051 174.674 12.8051C174.674 12.8051 174.674 12.8051 174.674 12.8051C174.674 12.8051 174.674 12.8051 174.674 12.8052C174.674 12.8052 174.674 12.8052 174.674 12.8052C174.674 12.8052 174.674 12.8052 174.674 12.8053C174.674 12.8053 174.674 12.8053 174.674 12.8053C174.674 12.8053 174.674 12.8053 174.674 12.8054C174.674 12.8054 174.674 12.8054 174.674 12.8054C174.674 12.8054 174.674 12.8054 174.674 12.8055C174.674 12.8055 174.674 12.8055 174.674 12.8055C174.674 12.8055 174.674 12.8055 174.674 12.8056C174.674 12.8056 174.674 12.8056 174.674 12.8056C174.674 12.8056 174.674 12.8056 174.674 12.8057C174.674 12.8057 174.674 12.8057 174.674 12.8057C174.674 12.8057 174.674 12.8057 174.674 12.8058C174.674 12.8058 174.674 12.8058 174.674 12.8058C174.674 12.8058 174.674 12.8058 174.674 12.8059C174.674 12.8059 174.674 12.8059 174.674 12.8059C174.674 12.8059 174.674 12.8059 174.674 12.806C174.674 12.806 174.674 12.806 174.674 12.806C174.674 12.806 174.674 12.806 174.674 12.8061C174.674 12.8061 174.674 12.8061 174.674 12.8061C174.674 12.8061 174.674 12.8062 174.674 12.8062C174.674 12.8062 174.674 12.8062 174.674 12.8062C174.674 12.8062 174.674 12.8063 174.674 12.8063C174.674 12.8063 174.674 12.8063 174.674 12.8063C174.674 12.8064 174.674 12.8064 174.674 12.8064C174.674 12.8064 174.674 12.8064 174.674 12.8064C174.674 12.8065 174.674 12.8065 174.674 12.8065C174.674 12.8065 174.674 12.8065 174.674 12.8066C174.674 12.8066 174.674 12.8066 174.674 12.8066C174.674 12.8066 174.674 12.8066 174.674 12.8067C174.674 12.8067 174.674 12.8067 174.674 12.8067C174.674 12.8067 174.674 12.8068 174.674 12.8068C174.674 12.8068 174.674 12.8068 174.674 12.8068C174.674 12.8069 174.674 12.8069 174.674 12.8069C174.674 12.8069 174.674 12.8069 174.674 12.807C174.674 12.807 174.674 12.807 174.674 12.807C174.674 12.807 174.674 12.807 174.674 12.8071C174.674 12.8071 174.674 12.8071 174.674 12.8071C174.674 12.8071 174.674 12.8072 174.674 12.8072C174.674 12.8072 174.674 12.8072 174.674 12.8072C174.674 12.8073 174.674 12.8073 174.674 12.8073C174.674 12.8073 174.674 12.8073 174.674 12.8074C174.674 12.8074 174.674 12.8074 174.674 12.8074C174.674 12.8074 174.674 12.8075 174.674 12.8075C174.674 12.8075 174.674 12.8075 174.674 12.8075C174.674 12.8076 174.674 12.8076 174.674 12.8076C174.674 12.8076 174.674 12.8076 174.674 12.8077C174.674 12.8077 174.674 12.8077 174.674 12.8077C174.674 12.8078 174.674 12.8078 174.674 12.8078C174.674 12.8078 174.674 12.8078 174.674 12.8079C174.674 12.8079 174.674 12.8079 174.674 12.8079C174.674 12.8079 174.674 12.808 174.674 12.808C174.674 12.808 174.674 12.808 174.674 12.808C174.674 12.8081 174.674 12.8081 174.674 12.8081C174.674 12.8081 174.674 12.8082 174.674 12.8082C174.674 12.8082 174.674 12.8082 174.674 12.8082C174.674 12.8083 174.674 12.8083 174.674 12.8083C174.674 12.8083 174.674 12.8083 174.674 12.8084C174.674 12.8084 174.674 12.8084 174.674 12.8084C174.674 12.8085 174.674 12.8085 174.674 12.8085C174.674 12.8085 174.674 12.8085 174.674 12.8086C174.674 12.8086 174.674 12.8086 174.674 12.8086C174.674 12.8087 174.674 12.8087 174.674 12.8087C174.674 12.8087 174.674 12.8087 174.674 12.8088C174.674 12.8088 174.674 12.8088 174.674 12.8088C174.674 12.8089 174.674 12.8089 174.674 12.8089C174.674 12.8089 174.674 12.809 174.674 12.809C174.674 12.809 174.674 12.809 174.674 12.809C174.674 12.8091 174.674 12.8091 174.674 12.8091C174.674 12.8091 174.674 12.8092 174.674 12.8092C174.674 12.8092 174.674 12.8092 174.674 12.8093C174.674 12.8093 174.674 12.8093 174.674 12.8093C174.674 12.8093 174.674 12.8094 174.674 12.8094C174.674 12.8094 174.674 12.8094 174.674 12.8095C174.674 12.8095 174.674 12.8095 174.674 12.8095C174.674 12.8096 174.674 12.8096 174.674 12.8096C174.674 12.8096 174.674 12.8097 174.674 12.8097C174.674 12.8097 174.674 12.8097 174.674 12.8098C174.674 12.8098 174.674 12.8098 174.674 12.8098C174.674 12.8098 174.674 12.8099 174.674 12.8099C174.674 12.8099 174.674 12.8099 174.674 12.81C174.674 12.81 174.674 12.81 174.674 12.81C174.674 12.8101 174.674 12.8101 174.674 12.8101C174.674 12.8101 174.674 12.8102 174.674 12.8102C174.674 12.8102 174.674 12.8102 174.674 12.8103C174.674 12.8103 174.674 12.8103 174.674 12.8103C174.674 12.8104 174.674 12.8104 174.674 12.8104C174.674 12.8104 174.674 12.8105 174.674 12.8105C174.674 12.8105 174.674 12.8105 174.674 12.8106C174.674 12.8106 174.674 12.8106 174.674 12.8106C174.674 12.8107 174.674 12.8107 174.674 12.8107C174.674 12.8108 174.674 12.8108 174.674 12.8108C174.674 12.8108 174.674 12.8109 174.674 12.8109C174.674 12.8109 174.674 12.8109 174.674 12.811C174.674 12.811 174.674 12.811 174.674 12.811C174.674 12.8111 174.674 12.8111 174.674 12.8111C174.674 12.8111 174.674 12.8112 174.674 12.8112C174.674 12.8112 174.674 12.8113 174.674 12.8113C174.674 12.8113 174.674 12.8113 174.674 12.8114C174.674 12.8114 174.674 12.8114 174.674 12.8114C174.674 12.8115 174.674 12.8115 174.674 12.8115C174.674 12.8115 174.674 12.8116 174.674 12.8116C174.674 12.8116 174.674 12.8117 174.674 12.8117C174.674 12.8117 174.674 12.8117 174.674 12.8118C174.674 12.8118 174.674 12.8118 174.674 12.8118C174.674 12.8119 174.674 12.8119 174.674 12.8119C174.674 12.812 174.674 12.812 174.674 12.812C174.674 12.812 174.674 12.8121 174.674 12.8121C174.674 12.8121 174.674 12.8122 174.674 12.8122C174.674 12.8122 174.674 12.8122 174.674 12.8123C174.674 12.8123 174.674 12.8123 174.674 12.8124C174.674 12.8124 174.674 12.8124 174.674 12.8124C174.674 12.8125 174.674 12.8125 174.674 12.8125C174.674 12.8125 174.674 12.8126 174.674 12.8126C174.674 12.8126 174.674 12.8127 174.674 12.8127C174.674 12.8127 174.674 12.8128 174.674 12.8128C174.674 12.8128 174.674 12.8128 174.674 12.8129C174.674 12.8129 174.674 12.8129 174.674 12.813C174.674 12.813 174.674 12.813 174.674 12.813C174.674 12.8131 174.674 12.8131 174.674 12.8131C174.674 12.8132 174.674 12.8132 174.674 12.8132C174.674 12.8132 174.674 12.8133 174.674 12.8133C174.674 12.8133 174.674 12.8134 174.674 12.8134C174.674 12.8134 174.674 12.8135 174.674 12.8135C174.674 12.8135 174.674 12.8135 174.674 12.8136C174.674 12.8136 174.674 12.8136 174.674 12.8137C174.674 12.8137 174.674 12.8137 174.674 12.8138C174.674 12.8138 174.674 12.8138 174.674 12.8139C174.674 12.8139 174.674 12.8139 174.674 12.8139C174.674 12.814 174.674 12.814 174.674 12.814C174.674 12.8141 174.674 12.8141 174.674 12.8141C174.674 12.8142 174.674 12.8142 174.674 12.8142C174.674 12.8143 174.674 12.8143 174.674 12.8143C174.674 12.8143 174.674 12.8144 174.674 12.8144C174.674 12.8144 174.674 12.8145 174.674 12.8145C174.674 12.8145 174.674 12.8146 174.674 12.8146C174.674 12.8146 174.674 12.8147 174.674 12.8147C174.674 12.8147 174.674 12.8148 174.674 12.8148C174.674 12.8148 174.674 12.8149 174.674 12.8149C174.674 12.8149 174.674 12.8149 174.674 12.815C174.674 12.815 174.674 12.815 174.674 12.8151C174.674 12.8151 174.674 12.8151 174.674 12.8152C174.674 12.8152 174.674 12.8152 174.674 12.8153C174.674 12.8153 174.674 12.8153 174.674 12.8154C174.674 12.8154 174.674 12.8154 174.674 12.8155C174.674 12.8155 174.674 12.8155 174.674 12.8156C174.674 12.8156 174.674 12.8156 174.674 12.8157C174.674 12.8157 174.674 12.8157 174.674 12.8158C174.674 12.8158 174.674 12.8158 174.674 12.8159C174.674 12.8159 174.674 12.8159 174.674 12.816C174.674 12.816 174.674 12.816 174.674 12.8161C174.674 12.8161 174.674 12.8161 174.674 12.8162C174.674 12.8162 174.674 12.8162 174.674 12.8163C174.674 12.8163 174.674 12.8163 174.674 12.8164C174.674 12.8164 174.674 12.8164 174.674 12.8165C174.674 12.8165 174.674 12.8165 174.674 12.8166C174.674 12.8166 174.674 12.8167 174.674 12.8167C174.674 12.8167 174.674 12.8168 174.674 12.8168C174.674 12.8168 174.674 12.8169 174.674 12.8169C174.674 12.8169 174.674 12.817 174.674 12.817C174.674 12.817 174.674 12.8171 174.674 12.8171C174.674 12.8171 174.674 12.8172 174.674 12.8172C174.674 12.8172 174.674 12.8173 174.674 12.8173C174.674 12.8174 174.674 12.8174 174.674 12.8174C174.674 12.8175 174.674 12.8175 174.674 12.8175C174.674 12.8176 174.674 12.8176 174.674 12.8176C174.674 12.8177 174.674 12.8177 174.674 12.8177C174.674 12.8178 174.674 12.8178 174.674 12.8179C174.674 12.8179 174.674 12.8179 174.674 12.818C174.674 12.818 174.674 12.818 174.674 12.8181C174.674 12.8181 174.674 12.8181 174.674 12.8182C174.674 12.8182 174.674 12.8183 174.674 12.8183C174.674 12.8183 174.674 12.8184 174.674 12.8184C174.674 12.8184 174.674 12.8185 174.674 12.8185C174.674 12.8186 174.674 12.8186 174.674 12.8186C174.674 12.8187 174.674 12.8187 174.674 12.8187C174.674 12.8188 174.674 12.8188 174.674 12.8189C174.674 12.8189 174.674 12.8189 174.674 12.819C174.674 12.819 174.674 12.819 174.674 12.8191C174.674 12.8191 174.674 12.8192 174.674 12.8192C174.674 12.8192 174.674 12.8193 174.674 12.8193C174.674 12.8193 174.674 12.8194 174.674 12.8194C174.674 12.8195 174.674 12.8195 174.674 12.8195C174.674 12.8196 174.674 12.8196 174.674 12.8196C174.674 12.8197 174.674 12.8197 174.674 12.8198C174.674 12.8198 174.674 12.8198 174.674 12.8199C174.674 12.8199 174.674 12.82 174.674 12.82H175.474C175.474 12.82 175.474 12.8199 175.474 12.8199C175.474 12.8198 175.474 12.8198 175.474 12.8198C175.474 12.8197 175.474 12.8197 175.474 12.8196C175.474 12.8196 175.474 12.8196 175.474 12.8195C175.474 12.8195 175.474 12.8195 175.474 12.8194C175.474 12.8194 175.474 12.8193 175.474 12.8193C175.474 12.8193 175.474 12.8192 175.474 12.8192C175.474 12.8192 175.474 12.8191 175.474 12.8191C175.474 12.819 175.474 12.819 175.474 12.819C175.474 12.8189 175.474 12.8189 175.474 12.8189C175.474 12.8188 175.474 12.8188 175.474 12.8187C175.474 12.8187 175.474 12.8187 175.474 12.8186C175.474 12.8186 175.474 12.8186 175.474 12.8185C175.474 12.8185 175.474 12.8184 175.474 12.8184C175.474 12.8184 175.474 12.8183 175.474 12.8183C175.474 12.8183 175.474 12.8182 175.474 12.8182C175.474 12.8181 175.474 12.8181 175.474 12.8181C175.474 12.818 175.474 12.818 175.474 12.818C175.474 12.8179 175.474 12.8179 175.474 12.8179C175.474 12.8178 175.474 12.8178 175.474 12.8177C175.474 12.8177 175.474 12.8177 175.474 12.8176C175.474 12.8176 175.474 12.8176 175.474 12.8175C175.474 12.8175 175.474 12.8175 175.474 12.8174C175.474 12.8174 175.474 12.8174 175.474 12.8173C175.474 12.8173 175.474 12.8172 175.474 12.8172C175.474 12.8172 175.474 12.8171 175.474 12.8171C175.474 12.8171 175.474 12.817 175.474 12.817C175.474 12.817 175.474 12.8169 175.474 12.8169C175.474 12.8169 175.474 12.8168 175.474 12.8168C175.474 12.8168 175.474 12.8167 175.474 12.8167C175.474 12.8167 175.474 12.8166 175.474 12.8166C175.474 12.8165 175.474 12.8165 175.474 12.8165C175.474 12.8164 175.474 12.8164 175.474 12.8164C175.474 12.8163 175.474 12.8163 175.474 12.8163C175.474 12.8162 175.474 12.8162 175.474 12.8162C175.474 12.8161 175.474 12.8161 175.474 12.8161C175.474 12.816 175.474 12.816 175.474 12.816C175.474 12.8159 175.474 12.8159 175.474 12.8159C175.474 12.8158 175.474 12.8158 175.474 12.8158C175.474 12.8157 175.474 12.8157 175.474 12.8157C175.474 12.8156 175.474 12.8156 175.474 12.8156C175.474 12.8155 175.474 12.8155 175.474 12.8155C175.474 12.8154 175.474 12.8154 175.474 12.8154C175.474 12.8153 175.474 12.8153 175.474 12.8153C175.474 12.8152 175.474 12.8152 175.474 12.8152C175.474 12.8151 175.474 12.8151 175.474 12.8151C175.474 12.815 175.474 12.815 175.474 12.815C175.474 12.8149 175.474 12.8149 175.474 12.8149C175.474 12.8149 175.474 12.8148 175.474 12.8148C175.474 12.8148 175.474 12.8147 175.474 12.8147C175.474 12.8147 175.474 12.8146 175.474 12.8146C175.474 12.8146 175.474 12.8145 175.474 12.8145C175.474 12.8145 175.474 12.8144 175.474 12.8144C175.474 12.8144 175.474 12.8143 175.474 12.8143C175.474 12.8143 175.474 12.8143 175.474 12.8142C175.474 12.8142 175.474 12.8142 175.474 12.8141C175.474 12.8141 175.474 12.8141 175.474 12.814C175.474 12.814 175.474 12.814 175.474 12.8139C175.474 12.8139 175.474 12.8139 175.474 12.8139C175.474 12.8138 175.474 12.8138 175.474 12.8138C175.474 12.8137 175.474 12.8137 175.474 12.8137C175.474 12.8136 175.474 12.8136 175.474 12.8136C175.474 12.8135 175.474 12.8135 175.474 12.8135C175.474 12.8135 175.474 12.8134 175.474 12.8134C175.474 12.8134 175.474 12.8133 175.474 12.8133C175.474 12.8133 175.474 12.8132 175.474 12.8132C175.474 12.8132 175.474 12.8132 175.474 12.8131C175.474 12.8131 175.474 12.8131 175.474 12.813C175.474 12.813 175.474 12.813 175.474 12.813C175.474 12.8129 175.474 12.8129 175.474 12.8129C175.474 12.8128 175.474 12.8128 175.474 12.8128C175.474 12.8128 175.474 12.8127 175.474 12.8127C175.474 12.8127 175.474 12.8126 175.474 12.8126C175.474 12.8126 175.474 12.8125 175.474 12.8125C175.474 12.8125 175.474 12.8125 175.474 12.8124C175.474 12.8124 175.474 12.8124 175.474 12.8124C175.474 12.8123 175.474 12.8123 175.474 12.8123C175.474 12.8122 175.474 12.8122 175.474 12.8122C175.474 12.8122 175.474 12.8121 175.474 12.8121C175.474 12.8121 175.474 12.812 175.474 12.812C175.474 12.812 175.474 12.812 175.474 12.8119C175.474 12.8119 175.474 12.8119 175.474 12.8118C175.474 12.8118 175.474 12.8118 175.474 12.8118C175.474 12.8117 175.474 12.8117 175.474 12.8117C175.474 12.8117 175.474 12.8116 175.474 12.8116C175.474 12.8116 175.474 12.8115 175.474 12.8115C175.474 12.8115 175.474 12.8115 175.474 12.8114C175.474 12.8114 175.474 12.8114 175.474 12.8114C175.474 12.8113 175.474 12.8113 175.474 12.8113C175.474 12.8113 175.474 12.8112 175.474 12.8112C175.474 12.8112 175.474 12.8111 175.474 12.8111C175.474 12.8111 175.474 12.8111 175.474 12.811C175.474 12.811 175.474 12.811 175.474 12.811C175.474 12.8109 175.474 12.8109 175.474 12.8109C175.474 12.8109 175.474 12.8108 175.474 12.8108C175.474 12.8108 175.474 12.8108 175.474 12.8107C175.474 12.8107 175.474 12.8107 175.474 12.8106C175.474 12.8106 175.474 12.8106 175.474 12.8106C175.474 12.8105 175.474 12.8105 175.474 12.8105C175.474 12.8105 175.474 12.8104 175.474 12.8104C175.474 12.8104 175.474 12.8104 175.474 12.8103C175.474 12.8103 175.474 12.8103 175.474 12.8103C175.474 12.8102 175.474 12.8102 175.474 12.8102C175.474 12.8102 175.474 12.8101 175.474 12.8101C175.474 12.8101 175.474 12.8101 175.474 12.81C175.474 12.81 175.474 12.81 175.474 12.81C175.474 12.8099 175.474 12.8099 175.474 12.8099C175.474 12.8099 175.474 12.8098 175.474 12.8098C175.474 12.8098 175.474 12.8098 175.474 12.8098C175.474 12.8097 175.474 12.8097 175.474 12.8097C175.474 12.8097 175.474 12.8096 175.474 12.8096C175.474 12.8096 175.474 12.8096 175.474 12.8095C175.474 12.8095 175.474 12.8095 175.474 12.8095C175.474 12.8094 175.474 12.8094 175.474 12.8094C175.474 12.8094 175.474 12.8093 175.474 12.8093C175.474 12.8093 175.474 12.8093 175.474 12.8093C175.474 12.8092 175.474 12.8092 175.474 12.8092C175.474 12.8092 175.474 12.8091 175.474 12.8091C175.474 12.8091 175.474 12.8091 175.474 12.809C175.474 12.809 175.474 12.809 175.474 12.809C175.474 12.809 175.474 12.8089 175.474 12.8089C175.474 12.8089 175.474 12.8089 175.474 12.8088C175.474 12.8088 175.474 12.8088 175.474 12.8088C175.474 12.8087 175.474 12.8087 175.474 12.8087C175.474 12.8087 175.474 12.8087 175.474 12.8086C175.474 12.8086 175.474 12.8086 175.474 12.8086C175.474 12.8085 175.474 12.8085 175.474 12.8085C175.474 12.8085 175.474 12.8085 175.474 12.8084C175.474 12.8084 175.474 12.8084 175.474 12.8084C175.474 12.8083 175.474 12.8083 175.474 12.8083C175.474 12.8083 175.474 12.8083 175.474 12.8082C175.474 12.8082 175.474 12.8082 175.474 12.8082C175.474 12.8082 175.474 12.8081 175.474 12.8081C175.474 12.8081 175.474 12.8081 175.474 12.808C175.474 12.808 175.474 12.808 175.474 12.808C175.474 12.808 175.474 12.8079 175.474 12.8079C175.474 12.8079 175.474 12.8079 175.474 12.8079C175.474 12.8078 175.474 12.8078 175.474 12.8078C175.474 12.8078 175.474 12.8078 175.474 12.8077C175.474 12.8077 175.474 12.8077 175.474 12.8077C175.474 12.8076 175.474 12.8076 175.474 12.8076C175.474 12.8076 175.474 12.8076 175.474 12.8075C175.474 12.8075 175.474 12.8075 175.474 12.8075C175.474 12.8075 175.474 12.8074 175.474 12.8074C175.474 12.8074 175.474 12.8074 175.474 12.8074C175.474 12.8073 175.474 12.8073 175.474 12.8073C175.474 12.8073 175.474 12.8073 175.474 12.8072C175.474 12.8072 175.474 12.8072 175.474 12.8072C175.474 12.8072 175.474 12.8071 175.474 12.8071C175.474 12.8071 175.474 12.8071 175.474 12.8071C175.474 12.807 175.474 12.807 175.474 12.807C175.474 12.807 175.474 12.807 175.474 12.807C175.474 12.8069 175.474 12.8069 175.474 12.8069C175.474 12.8069 175.474 12.8069 175.474 12.8068C175.474 12.8068 175.474 12.8068 175.474 12.8068C175.474 12.8068 175.474 12.8067 175.474 12.8067C175.474 12.8067 175.474 12.8067 175.474 12.8067C175.474 12.8066 175.474 12.8066 175.474 12.8066C175.474 12.8066 175.474 12.8066 175.474 12.8066C175.474 12.8065 175.474 12.8065 175.474 12.8065C175.474 12.8065 175.474 12.8065 175.474 12.8064C175.474 12.8064 175.474 12.8064 175.474 12.8064C175.474 12.8064 175.474 12.8064 175.474 12.8063C175.474 12.8063 175.474 12.8063 175.474 12.8063C175.474 12.8063 175.474 12.8062 175.474 12.8062C175.474 12.8062 175.474 12.8062 175.474 12.8062C175.474 12.8062 175.474 12.8061 175.474 12.8061C175.474 12.8061 175.474 12.8061 175.474 12.8061C175.474 12.806 175.474 12.806 175.474 12.806C175.474 12.806 175.474 12.806 175.474 12.806C175.474 12.8059 175.474 12.8059 175.474 12.8059C175.474 12.8059 175.474 12.8059 175.474 12.8059C175.474 12.8058 175.474 12.8058 175.474 12.8058C175.474 12.8058 175.474 12.8058 175.474 12.8058C175.474 12.8057 175.474 12.8057 175.474 12.8057C175.474 12.8057 175.474 12.8057 175.474 12.8057C175.474 12.8056 175.474 12.8056 175.474 12.8056C175.474 12.8056 175.474 12.8056 175.474 12.8056C175.474 12.8055 175.474 12.8055 175.474 12.8055C175.474 12.8055 175.474 12.8055 175.474 12.8055C175.474 12.8054 175.474 12.8054 175.474 12.8054C175.474 12.8054 175.474 12.8054 175.474 12.8054C175.474 12.8053 175.474 12.8053 175.474 12.8053C175.474 12.8053 175.474 12.8053 175.474 12.8053C175.474 12.8052 175.474 12.8052 175.474 12.8052C175.474 12.8052 175.474 12.8052 175.474 12.8052C175.474 12.8051 175.474 12.8051 175.474 12.8051C175.474 12.8051 175.474 12.8051 175.474 12.8051C175.474 12.8051 175.474 12.805 175.474 12.805C175.474 12.805 175.474 12.805 175.474 12.805C175.474 12.805 175.474 12.8049 175.474 12.8049C175.474 12.8049 175.474 12.8049 175.474 12.8049C175.474 12.8049 175.474 12.8049 175.474 12.8048C175.474 12.8048 175.474 12.8048 175.474 12.8048C175.474 12.8048 175.474 12.8048 175.474 12.8047C175.474 12.8047 175.474 12.8047 175.474 12.8047C175.474 12.8047 175.474 12.8047 175.474 12.8047C175.474 12.8046 175.474 12.8046 175.474 12.8046C175.474 12.8046 175.474 12.8046 175.474 12.8046C175.474 12.8046 175.474 12.8045 175.474 12.8045C175.474 12.8045 175.474 12.8045 175.474 12.8045C175.474 12.8045 175.474 12.8045 175.474 12.8044C175.474 12.8044 175.474 12.8044 175.474 12.8044C175.474 12.8044 175.474 12.8044 175.474 12.8044C175.474 12.8043 175.474 12.8043 175.474 12.8043C175.474 12.8043 175.474 12.8043 175.474 12.8043C175.474 12.8043 175.474 12.8042 175.474 12.8042C175.474 12.8042 175.474 12.8042 175.474 12.8042C175.474 12.8042 175.474 12.8042 175.474 12.8041C175.474 12.8041 175.474 12.8041 175.474 12.8041C175.474 12.8041 175.474 12.8041 175.474 12.8041C175.474 12.804 175.474 12.804 175.474 12.804C175.474 12.804 175.474 12.804 175.474 12.804C175.474 12.804 175.474 12.804 175.474 12.8039C175.474 12.8039 175.474 12.8039 175.474 12.8039C175.474 12.8039 175.474 12.8039 175.474 12.8039C175.474 12.8039 175.474 12.8038 175.474 12.8038C175.474 12.8038 175.474 12.8038 175.474 12.8038C175.474 12.8038 175.474 12.8038 175.474 12.8037C175.474 12.8037 175.474 12.8037 175.474 12.8037C175.474 12.8037 175.474 12.8037 175.474 12.8037C175.474 12.8037 175.474 12.8036 175.474 12.8036C175.474 12.8036 175.474 12.8036 175.474 12.8036C175.474 12.8036 175.474 12.8036 175.474 12.8036C175.474 12.8035 175.474 12.8035 175.474 12.8035C175.474 12.8035 175.474 12.8035 175.474 12.8035C175.474 12.8035 175.474 12.8035 175.474 12.8034C175.474 12.8034 175.474 12.8034 175.474 12.8034C175.474 12.8034 175.474 12.8034 175.474 12.8034C175.474 12.8034 175.474 12.8034 175.474 12.8033C175.474 12.8033 175.474 12.8033 175.474 12.8033C175.474 12.8033 175.474 12.8033 175.474 12.8033C175.474 12.8033 175.474 12.8032 175.474 12.8032C175.474 12.8032 175.474 12.8032 175.474 12.8032C175.474 12.8032 175.474 12.8032 175.474 12.8032C175.474 12.8032 175.474 12.8031 175.474 12.8031C175.474 12.8031 175.474 12.8031 175.474 12.8031C175.474 12.8031 175.474 12.8031 175.474 12.8031C175.474 12.8031 175.474 12.803 175.474 12.803C175.474 12.803 175.474 12.803 175.474 12.803C175.474 12.803 175.474 12.803 175.474 12.803C175.474 12.803 175.474 12.8029 175.474 12.8029C175.474 12.8029 175.474 12.8029 175.474 12.8029C175.474 12.8029 175.474 12.8029 175.474 12.8029C175.474 12.8029 175.474 12.8028 175.474 12.8028C175.474 12.8028 175.474 12.8028 175.474 12.8028C175.474 12.8028 175.474 12.8028 175.474 12.8028C175.474 12.8028 175.474 12.8028 175.474 12.8027C175.474 12.8027 175.474 12.8027 175.474 12.8027C175.474 12.8027 175.474 12.8027 175.474 12.8027C175.474 12.8027 175.474 12.8027 175.474 12.8026C175.474 12.8026 175.474 12.8026 175.474 12.8026C175.474 12.8026 175.474 12.8026 175.474 12.8026C175.474 12.8026 175.474 12.8026 175.474 12.8026C175.474 12.8025 175.474 12.8025 175.474 12.8025C175.474 12.8025 175.474 12.8025 175.474 12.8025C175.474 12.8025 175.474 12.8025 175.474 12.8025C175.474 12.8025 175.474 12.8025 175.474 12.8024C175.474 12.8024 175.474 12.8024 175.474 12.8024C175.474 12.8024 175.474 12.8024 175.474 12.8024C175.474 12.8024 175.474 12.8024 175.474 12.8024C175.474 12.8023 175.474 12.8023 175.474 12.8023C175.474 12.8023 175.474 12.8023 175.474 12.8023C175.474 12.8023 175.474 12.8023 175.474 12.8023C175.474 12.8023 175.474 12.8023 175.474 12.8022C175.474 12.8022 175.474 12.8022 175.474 12.8022C175.474 12.8022 175.474 12.8022 175.474 12.8022C175.474 12.8022 175.474 12.8022 175.474 12.8022C175.474 12.8022 175.474 12.8021 175.474 12.8021C175.474 12.8021 175.474 12.8021 175.474 12.8021C175.474 12.8021 175.474 12.8021 175.474 12.8021C175.474 12.8021 175.474 12.8021 175.474 12.8021C175.474 12.8021 175.474 12.802 175.474 12.802C175.474 12.802 175.474 12.802 175.474 12.802C175.474 12.802 175.474 12.802 175.474 12.802C175.474 12.802 175.474 12.802 175.474 12.802C175.474 12.802 175.474 12.8019 175.474 12.8019C175.474 12.8019 175.474 12.8019 175.474 12.8019C175.474 12.8019 175.474 12.8019 175.474 12.8019C175.474 12.8019 175.474 12.8019 175.474 12.8019C175.474 12.8019 175.474 12.8018 175.474 12.8018C175.474 12.8018 175.474 12.8018 175.474 12.8018C175.474 12.8018 175.474 12.8018 175.474 12.8018C175.474 12.8018 175.474 12.8018 175.474 12.8018C175.474 12.8018 175.474 12.8018 175.474 12.8017C175.474 12.8017 175.474 12.8017 175.474 12.8017C175.474 12.8017 175.474 12.8017 175.474 12.8017C175.474 12.8017 175.474 12.8017 175.474 12.8017C175.474 12.8017 175.474 12.8017 175.474 12.8017C175.474 12.8016 175.474 12.8016 175.474 12.8016C175.474 12.8016 175.474 12.8016 175.474 12.8016C175.474 12.8016 175.474 12.8016 175.474 12.8016C175.474 12.8016 175.474 12.8016 175.474 12.8016C175.474 12.8016 175.474 12.8016 175.474 12.8015C175.474 12.8015 175.474 12.8015 175.474 12.8015C175.474 12.8015 175.474 12.8015 175.474 12.8015C175.474 12.8015 175.474 12.8015 175.474 12.8015C175.474 12.8015 175.474 12.8015 175.474 12.8015C175.474 12.8015 175.474 12.8014 175.474 12.8014C175.474 12.8014 175.474 12.8014 175.474 12.8014C175.474 12.8014 175.474 12.8014 175.474 12.8014C175.474 12.8014 175.474 12.8014 175.474 12.8014C175.474 12.8014 175.474 12.8014 175.474 12.8014C175.474 12.8014 175.474 12.8013 175.474 12.8013C175.474 12.8013 175.474 12.8013 175.474 12.8013C175.474 12.8013 175.474 12.8013 175.474 12.8013C175.474 12.8013 175.474 12.8013 175.474 12.8013C175.474 12.8013 175.474 12.8013 175.474 12.8013C175.474 12.8013 175.474 12.8013 175.474 12.8012C175.474 12.8012 175.474 12.8012 175.474 12.8012C175.474 12.8012 175.474 12.8012 175.474 12.8012C175.474 12.8012 175.474 12.8012 175.474 12.8012C175.474 12.8012 175.474 12.8012 175.474 12.8012C175.474 12.8012 175.474 12.8012 175.474 12.8012C175.474 12.8012 175.474 12.8011 175.474 12.8011C175.474 12.8011 175.474 12.8011 175.474 12.8011C175.474 12.8011 175.474 12.8011 175.474 12.8011C175.474 12.8011 175.474 12.8011 175.474 12.8011C175.474 12.8011 175.474 12.8011 175.474 12.8011C175.474 12.8011 175.474 12.8011 175.474 12.8011C175.474 12.801 175.474 12.801 175.474 12.801C175.474 12.801 175.474 12.801 175.474 12.801C175.474 12.801 175.474 12.801 175.474 12.801C175.474 12.801 175.474 12.801 175.474 12.801C175.474 12.801 175.474 12.801 175.474 12.801C175.474 12.801 175.474 12.801 175.474 12.801C175.474 12.801 175.474 12.8009 175.474 12.8009C175.474 12.8009 175.474 12.8009 175.474 12.8009C175.474 12.8009 175.474 12.8009 175.474 12.8009C175.474 12.8009 175.474 12.8009 175.474 12.8009C175.474 12.8009 175.474 12.8009 175.474 12.8009C175.474 12.8009 175.474 12.8009 175.474 12.8009C175.474 12.8009 175.474 12.8009 175.474 12.8009C175.474 12.8008 175.474 12.8008 175.474 12.8008C175.474 12.8008 175.474 12.8008 175.474 12.8008C175.474 12.8008 175.474 12.8008 175.474 12.8008C175.474 12.8008 175.474 12.8008 175.474 12.8008C175.474 12.8008 175.474 12.8008 175.474 12.8008C175.474 12.8008 175.474 12.8008 175.474 12.8008C175.474 12.8008 175.474 12.8008 175.474 12.8008C175.474 12.8008 175.474 12.8007 175.474 12.8007C175.474 12.8007 175.474 12.8007 175.474 12.8007C175.474 12.8007 175.474 12.8007 175.474 12.8007C175.474 12.8007 175.474 12.8007 175.474 12.8007C175.474 12.8007 175.474 12.8007 175.474 12.8007C175.474 12.8007 175.474 12.8007 175.474 12.8007C175.474 12.8007 175.474 12.8007 175.474 12.8007C175.474 12.8007 175.474 12.8007 175.474 12.8007C175.474 12.8007 175.474 12.8006 175.474 12.8006C175.474 12.8006 175.474 12.8006 175.474 12.8006C175.474 12.8006 175.474 12.8006 175.474 12.8006C175.474 12.8006 175.474 12.8006 175.474 12.8006C175.474 12.8006 175.474 12.8006 175.474 12.8006C175.474 12.8006 175.474 12.8006 175.474 12.8006C175.474 12.8006 175.474 12.8006 175.474 12.8006C175.474 12.8006 175.474 12.8006 175.474 12.8006C175.474 12.8006 175.474 12.8006 175.474 12.8006C175.474 12.8006 175.474 12.8005 175.474 12.8005C175.474 12.8005 175.474 12.8005 175.474 12.8005C175.474 12.8005 175.474 12.8005 175.474 12.8005C175.474 12.8005 175.474 12.8005 175.474 12.8005C175.474 12.8005 175.474 12.8005 175.474 12.8005C175.474 12.8005 175.474 12.8005 175.474 12.8005C175.474 12.8005 175.474 12.8005 175.474 12.8005C175.474 12.8005 175.474 12.8005 175.474 12.8005C175.474 12.8005 175.474 12.8005 175.474 12.8005C175.474 12.8005 175.474 12.8005 175.474 12.8005C175.474 12.8005 175.474 12.8004 175.474 12.8004C175.474 12.8004 175.474 12.8004 175.474 12.8004C175.474 12.8004 175.474 12.8004 175.474 12.8004C175.474 12.8004 175.474 12.8004 175.474 12.8004C175.474 12.8004 175.474 12.8004 175.474 12.8004C175.474 12.8004 175.474 12.8004 175.474 12.8004C175.474 12.8004 175.474 12.8004 175.474 12.8004C175.474 12.8004 175.474 12.8004 175.474 12.8004C175.474 12.8004 175.474 12.8004 175.474 12.8004C175.474 12.8004 175.474 12.8004 175.474 12.8004C175.474 12.8004 175.474 12.8004 175.474 12.8004C175.474 12.8004 175.474 12.8004 175.474 12.8004C175.474 12.8003 175.474 12.8003 175.474 12.8003C175.474 12.8003 175.474 12.8003 175.474 12.8003C175.474 12.8003 175.474 12.8003 175.474 12.8003C175.474 12.8003 175.474 12.8003 175.474 12.8003C175.474 12.8003 175.474 12.8003 175.474 12.8003C175.474 12.8003 175.474 12.8003 175.474 12.8003C175.474 12.8003 175.474 12.8003 175.474 12.8003C175.474 12.8003 175.474 12.8003 175.474 12.8003C175.474 12.8003 175.474 12.8003 175.474 12.8003C175.474 12.8003 175.474 12.8003 175.474 12.8003C175.474 12.8003 175.474 12.8003 175.474 12.8003C175.474 12.8003 175.474 12.8003 175.474 12.8003C175.474 12.8003 175.474 12.8003 175.474 12.8003C175.474 12.8003 175.474 12.8003 175.474 12.8003C175.474 12.8002 175.474 12.8002 175.474 12.8002C175.474 12.8002 175.474 12.8002 175.474 12.8002C175.474 12.8002 175.474 12.8002 175.474 12.8002C175.474 12.8002 175.474 12.8002 175.474 12.8002C175.474 12.8002 175.474 12.8002 175.474 12.8002C175.474 12.8002 175.474 12.8002 175.474 12.8002C175.474 12.8002 175.474 12.8002 175.474 12.8002C175.474 12.8002 175.474 12.8002 175.474 12.8002C175.474 12.8002 175.474 12.8002 175.474 12.8002C175.474 12.8002 175.474 12.8002 175.474 12.8002C175.474 12.8002 175.474 12.8002 175.474 12.8002C175.474 12.8002 175.474 12.8002 175.474 12.8002C175.474 12.8002 175.474 12.8002 175.474 12.8002C175.474 12.8002 175.474 12.8002 175.474 12.8002C175.474 12.8002 175.474 12.8002 175.474 12.8002C175.474 12.8002 175.474 12.8002 175.474 12.8002C175.474 12.8002 175.474 12.8002 175.474 12.8002C175.474 12.8002 175.474 12.8002 175.474 12.8002C175.474 12.8002 175.474 12.8001 175.474 12.8001C175.474 12.8001 175.474 12.8001 175.474 12.8001C175.474 12.8001 175.474 12.8001 175.474 12.8001C175.474 12.8001 175.474 12.8001 175.474 12.8001C175.474 12.8001 175.474 12.8001 175.474 12.8001C175.474 12.8001 175.474 12.8001 175.474 12.8001C175.474 12.8001 175.474 12.8001 175.474 12.8001C175.474 12.8001 175.474 12.8001 175.474 12.8001C175.474 12.8001 175.474 12.8001 175.474 12.8001C175.474 12.8001 175.474 12.8001 175.474 12.8001C175.474 12.8001 175.474 12.8001 175.474 12.8001C175.474 12.8001 175.474 12.8001 175.474 12.8001C175.474 12.8001 175.474 12.8001 175.474 12.8001C175.474 12.8001 175.474 12.8001 175.474 12.8001C175.474 12.8001 175.474 12.8001 175.474 12.8001C175.474 12.8001 175.474 12.8001 175.474 12.8001C175.474 12.8001 175.474 12.8001 175.474 12.8001C175.474 12.8001 175.474 12.8001 175.474 12.8001C175.474 12.8001 175.474 12.8001 175.474 12.8001C175.474 12.8001 175.474 12.8001 175.474 12.8001C175.474 12.8001 175.474 12.8001 175.474 12.8001C175.474 12.8001 175.474 12.8001 175.474 12.8001C175.474 12.8001 175.474 12.8001 175.474 12.8001C175.474 12.8001 175.474 12.8001 175.474 12.8001C175.474 12.8001 175.474 12.8001 175.474 12.8001C175.474 12.8001 175.474 12.8001 175.474 12.8001C175.474 12.8001 175.474 12.8001 175.474 12.8001C175.474 12.8001 175.474 12.8001 175.474 12.8001C175.474 12.8001 175.474 12.8001 175.474 12.8001C175.474 12.8001 175.474 12.8001 175.474 12.8001C175.474 12.8001 175.474 12.8001 175.474 12.8001C175.474 12.8 175.474 12.8 175.474 12.8C175.474 12.8 175.474 12.8 175.474 12.8C175.474 12.8 175.474 12.8 175.474 12.8C175.474 12.8 175.474 12.8 175.474 12.8C175.474 12.8 175.474 12.8 175.474 12.8C175.474 12.8 175.474 12.8 175.474 12.8V12.8C175.474 12.8 175.474 12.8 175.474 12.8C175.474 12.8 175.474 12.8 175.474 12.8C175.474 12.8 175.474 12.8 175.474 12.8V12.8C175.474 12.8 175.474 12.8 175.474 12.8C175.474 12.8 175.474 12.8 175.474 12.8V12.8C175.474 12.8 175.474 12.8 175.474 12.8C175.474 12.8 175.474 12.8 175.474 12.8V12.8C175.474 12.8 175.474 12.8 175.474 12.8C175.474 12.8 175.474 12.8 175.474 12.8V12.8V12.8V12.8C175.474 12.8 175.474 12.8 175.474 12.8C175.474 12.8 175.474 12.8 175.474 12.8C175.474 12.8 175.474 12.8 175.474 12.8C175.474 12.8 175.474 12.8 175.474 12.8V12.8V12.8C175.474 12.8 175.474 12.8 175.474 12.8C175.474 12.8 175.474 12.8 175.474 12.8V12.8C175.474 12.8 175.474 12.8 175.474 12.8V12.8C175.474 12.8 175.474 12.8 175.474 12.8C175.474 12.8 175.474 12.8 175.474 12.8V12.8C175.474 12.8 175.474 12.8 175.474 12.8V12.8V12.8C175.474 12.8 175.074 12.8 175.074 12.8ZM174.674 12.82V19.42H175.474V12.82H174.674ZM174.674 19.42C174.674 19.9609 175.113 20.4 175.654 20.4V19.6C175.555 19.6 175.474 19.5191 175.474 19.42H174.674ZM175.654 20.4C176.195 20.4 176.634 19.9609 176.634 19.42H175.834C175.834 19.5191 175.753 19.6 175.654 19.6V20.4ZM176.634 19.42V13.38H175.834V19.42H176.634Z" fill="white"/>
<path d="M50.9297 29.6758H48.6797V32H47.5078V26.3125H51.2109V27.2617H48.6797V28.7305H50.9297V29.6758ZM64.3625 29.2852C64.3625 29.8451 64.2635 30.3359 64.0656 30.7578C63.8677 31.1797 63.5839 31.5052 63.2141 31.7344C62.8469 31.9635 62.425 32.0781 61.9484 32.0781C61.4771 32.0781 61.0565 31.9648 60.6867 31.7383C60.3169 31.5117 60.0305 31.1888 59.8273 30.7695C59.6242 30.3477 59.5214 29.8633 59.5188 29.3164V29.0352C59.5188 28.4753 59.619 27.9831 59.8195 27.5586C60.0227 27.1315 60.3078 26.8047 60.675 26.5781C61.0448 26.349 61.4667 26.2344 61.9406 26.2344C62.4146 26.2344 62.8352 26.349 63.2023 26.5781C63.5721 26.8047 63.8573 27.1315 64.0578 27.5586C64.2609 27.9831 64.3625 28.474 64.3625 29.0312V29.2852ZM63.175 29.0273C63.175 28.431 63.0682 27.9779 62.8547 27.668C62.6411 27.3581 62.3365 27.2031 61.9406 27.2031C61.5474 27.2031 61.244 27.3568 61.0305 27.6641C60.8169 27.9688 60.7089 28.4167 60.7063 29.0078V29.2852C60.7063 29.8659 60.813 30.3164 61.0266 30.6367C61.2401 30.957 61.5474 31.1172 61.9484 31.1172C62.3417 31.1172 62.6438 30.9635 62.8547 30.6562C63.0656 30.3464 63.1724 29.8958 63.175 29.3047V29.0273ZM75.1195 29.918H74.1859V32H73.0141V26.3125H75.1273C75.7992 26.3125 76.3174 26.4622 76.682 26.7617C77.0466 27.0612 77.2289 27.4844 77.2289 28.0312C77.2289 28.4193 77.1443 28.7435 76.975 29.0039C76.8083 29.2617 76.5544 29.4674 76.2133 29.6211L77.4438 31.9453V32H76.1859L75.1195 29.918ZM74.1859 28.9688H75.1313C75.4255 28.9688 75.6534 28.8945 75.8148 28.7461C75.9763 28.5951 76.057 28.388 76.057 28.125C76.057 27.8568 75.9802 27.6458 75.8266 27.4922C75.6755 27.3385 75.4424 27.2617 75.1273 27.2617H74.1859V28.9688ZM100.18 30.1055C100.136 30.7174 99.9096 31.1992 99.5008 31.5508C99.0945 31.9023 98.5581 32.0781 97.8914 32.0781C97.1622 32.0781 96.588 31.8333 96.1688 31.3438C95.7521 30.8516 95.5438 30.1771 95.5438 29.3203V28.9727C95.5438 28.4258 95.6401 27.944 95.8328 27.5273C96.0255 27.1107 96.3003 26.7917 96.657 26.5703C97.0164 26.3464 97.4331 26.2344 97.907 26.2344C98.5633 26.2344 99.0919 26.4102 99.493 26.7617C99.894 27.1133 100.126 27.6068 100.188 28.2422H99.0164C98.9878 27.875 98.8849 27.6094 98.7078 27.4453C98.5333 27.2786 98.2664 27.1953 97.907 27.1953C97.5164 27.1953 97.2234 27.3359 97.0281 27.6172C96.8354 27.8958 96.7365 28.3294 96.7313 28.918V29.3477C96.7313 29.9622 96.8237 30.4115 97.0086 30.6953C97.1961 30.9792 97.4904 31.1211 97.8914 31.1211C98.2534 31.1211 98.5229 31.0391 98.7 30.875C98.8797 30.7083 98.9826 30.4518 99.0086 30.1055H100.18ZM111.961 30.8281H109.906L109.516 32H108.27L110.387 26.3125H111.473L113.602 32H112.355L111.961 30.8281ZM110.223 29.8789H111.645L110.93 27.75L110.223 29.8789ZM123.464 26.3125L124.925 30.4375L126.378 26.3125H127.917V32H126.741V30.4453L126.859 27.7617L125.323 32H124.519L122.988 27.7656L123.105 30.4453V32H121.933V26.3125H123.464ZM137.912 29.9961V32H136.741V26.3125H138.959C139.386 26.3125 139.761 26.3906 140.084 26.5469C140.41 26.7031 140.66 26.9258 140.834 27.2148C141.009 27.5013 141.096 27.8281 141.096 28.1953C141.096 28.7526 140.905 29.1927 140.522 29.5156C140.142 29.8359 139.614 29.9961 138.94 29.9961H137.912ZM137.912 29.0469H138.959C139.269 29.0469 139.505 28.974 139.666 28.8281C139.83 28.6823 139.912 28.474 139.912 28.2031C139.912 27.9245 139.83 27.6992 139.666 27.5273C139.502 27.3555 139.276 27.2669 138.987 27.2617H137.912V29.0469ZM152.22 30.8281H150.166L149.775 32H148.529L150.646 26.3125H151.732L153.861 32H152.615L152.22 30.8281ZM150.482 29.8789H151.904L151.189 27.75L150.482 29.8789ZM163.438 32H162.266V26.3125H163.438V32ZM176.828 31.2812C176.617 31.5339 176.319 31.7305 175.934 31.8711C175.548 32.0091 175.121 32.0781 174.652 32.0781C174.16 32.0781 173.728 31.9714 173.355 31.7578C172.986 31.5417 172.699 31.2292 172.496 30.8203C172.296 30.4115 172.193 29.931 172.188 29.3789V28.9922C172.188 28.4245 172.283 27.9336 172.473 27.5195C172.665 27.1029 172.941 26.7852 173.301 26.5664C173.663 26.3451 174.086 26.2344 174.57 26.2344C175.245 26.2344 175.772 26.3958 176.152 26.7188C176.533 27.0391 176.758 27.5065 176.828 28.1211H175.688C175.635 27.7956 175.52 27.5573 175.34 27.4062C175.163 27.2552 174.918 27.1797 174.605 27.1797C174.207 27.1797 173.904 27.3294 173.695 27.6289C173.487 27.9284 173.382 28.3737 173.379 28.9648V29.3281C173.379 29.9245 173.492 30.375 173.719 30.6797C173.945 30.9844 174.277 31.1367 174.715 31.1367C175.155 31.1367 175.469 31.043 175.656 30.8555V29.875H174.59V29.0117H176.828V31.2812ZM190.206 32H189.034L186.753 28.2578V32H185.581V26.3125H186.753L189.038 30.0625V26.3125H190.206V32Z" fill="white"/>
</svg>
