<?xml version="1.0" encoding="utf-8"?>
<!-- Generator: Adobe Illustrator 24.2.2, SVG Export Plug-In . SVG Version: 6.00 Build 0)  -->
<svg version="1.1" id="Layer_1" xmlns="http://www.w3.org/2000/svg" xmlns:xlink="http://www.w3.org/1999/xlink" x="0px" y="0px"
	 viewBox="0 0 191.4 36.8" style="enable-background:new 0 0 191.4 36.8;" xml:space="preserve">
<style type="text/css">
	.st0{clip-path:url(#SVGID_2_);}
	.st1{fill:#01177E;}
</style>
<g>
	<defs>
		<circle id="SVGID_1_" cx="18.4" cy="18.4" r="18"/>
	</defs>
	<clipPath id="SVGID_2_">
		<use xlink:href="#SVGID_1_"  style="overflow:visible;"/>
	</clipPath>
	<g class="st0">
		
			<image style="overflow:visible;enable-background:new    ;" width="900" height="900" xlink:href="../Mas Ujang - Social Media Analytic/photo_2021-06-14_13-25-02.jpg"  transform="matrix(4.085106e-02 0 0 4.085106e-02 0 0)">
		</image>
	</g>
</g>
<g>
	<path class="st1" d="M55.7,11.5c-0.3-0.4-0.8-0.6-1.3-0.6h-7.6c-0.5,0-1,0.2-1.3,0.6l-1.7,1.8c-0.3,0.3-0.5,0.8-0.5,1.2V25
		c0,0.6,0.5,1.2,1.2,1.2c0.7,0,1.2-0.5,1.2-1.2v-4.6h9.8V25c0,0.7,0.5,1.2,1.2,1.2s1.2-0.5,1.2-1.2V14.5c0-0.4-0.2-0.8-0.5-1.2
		L55.7,11.5z M45.7,18v-3.2l1.4-1.5h7l1.4,1.5V18H45.7z"/>
	<path class="st1" d="M73.4,11.3c-0.3-0.3-0.8-0.5-1.2-0.5H61.9c-0.7,0-1.2,0.5-1.2,1.2V25c0,0.7,0.5,1.2,1.2,1.2S63,25.6,63,25
		v-4.6h9.2c0.5,0,0.9-0.2,1.2-0.5l1.9-1.7c0.4-0.3,0.6-0.8,0.6-1.3v-2.5c0-0.5-0.2-1-0.6-1.3L73.4,11.3z M63,13.3H72l1.5,1.4v2
		L72,18H63V13.3z"/>
	<path class="st1" d="M91.4,11.3c-0.3-0.3-0.7-0.5-1.2-0.5H79.8c-0.7,0-1.2,0.5-1.2,1.2V25c0,0.7,0.5,1.2,1.2,1.2S81,25.6,81,25
		v-4.6h9.2c0.5,0,0.9-0.2,1.2-0.5l1.9-1.7c0.4-0.3,0.6-0.8,0.6-1.3v-2.5c0-0.5-0.2-1-0.5-1.3L91.4,11.3z M81,13.3H90l1.5,1.4v2
		L90,18H81V13.3z"/>
	<path class="st1" d="M100.5,13.2h8.6l1.9,1.7c0.2,0.2,0.5,0.3,0.8,0.3c0.3,0,0.6-0.1,0.9-0.4c0.2-0.2,0.3-0.5,0.3-0.8
		c0-0.3-0.2-0.6-0.4-0.8l-2-1.9c-0.3-0.3-0.7-0.5-1.2-0.5h-9c-0.5,0-0.9,0.2-1.2,0.5l-1.9,1.7c-0.4,0.3-0.6,0.8-0.6,1.3v8.3
		c0,0.5,0.2,1,0.6,1.3l1.9,1.7c0.3,0.3,0.7,0.5,1.2,0.5h9c0.4,0,0.9-0.2,1.2-0.5l2.1-1.9c0.2-0.2,0.4-0.5,0.4-0.9v-4.4
		c0-0.7-0.5-1.2-1.2-1.2h-7c-0.7,0-1.2,0.5-1.2,1.2s0.5,1.2,1.2,1.2h5.8v2.7l-1.5,1.4h-8.6l-1.5-1.4v-7.8L100.5,13.2z"/>
	<path class="st1" d="M128.4,23.8l-1.7-3.4h0.5c0.5,0,0.9-0.2,1.2-0.5l1.9-1.7c0.3-0.3,0.5-0.8,0.5-1.3v-2.5c0-0.5-0.2-0.9-0.6-1.3
		l-1.9-1.7c-0.3-0.3-0.7-0.5-1.2-0.5h-10.4c-0.7,0-1.2,0.5-1.2,1.2V25c0,0.7,0.5,1.2,1.2,1.2s1.2-0.5,1.2-1.2v-4.6h6.1l2.4,4.9
		c0,0.1,0.1,0.3,0.3,0.4c0.3,0.3,0.7,0.5,1.2,0.5h1.7c0.7,0,1.2-0.5,1.2-1.2v-0.2l-0.9-0.9H128.4z M118.1,13.2h8.9l1.5,1.4l0,1.6
		l0,0v0.3L127,18h-8.9V13.2z"/>
	<path class="st1" d="M146.1,13.1c0.7,0,1.2-0.5,1.2-1.2s-0.5-1.2-1.2-1.2h-11.2c-0.7,0-1.2,0.5-1.2,1.2s0.5,1.2,1.2,1.2h4.4v10.7
		h-4.4c-0.7,0-1.2,0.5-1.2,1.2s0.5,1.2,1.2,1.2h11.2c0.7,0,1.2-0.5,1.2-1.2s-0.5-1.2-1.2-1.2h-4.4V13.1H146.1z"/>
	<path class="st1" d="M168.9,10.7h-2c-0.4,0-0.7,0.2-1,0.5l-5.9,8.1l-5.9-8.2c-0.2-0.3-0.6-0.4-0.9-0.4h-2c-0.7,0-1.2,0.5-1.2,1.2
		V25c0,0.7,0.5,1.2,1.2,1.2s1.2-0.5,1.2-1.2V13.1h0.3l6.5,9c0.2,0.3,0.6,0.5,0.9,0.5c0.4,0,0.7-0.2,1-0.5l6.5-9h0.2V25
		c0,0.7,0.5,1.2,1.2,1.2c0.6,0,1.2-0.5,1.2-1.2V11.9C170.1,11.2,169.6,10.7,168.9,10.7z"/>
	<path class="st1" d="M186.6,17.4c-0.3-0.3-0.8-0.5-1.2-0.5h-8.6l-1.5-1.4v-1.1l1.5-1.4h8.6l1.9,1.7c0.2,0.2,0.5,0.3,0.8,0.3
		c0.3,0,0.6-0.1,0.9-0.4c0.2-0.2,0.3-0.5,0.3-0.8c0-0.3-0.1-0.6-0.4-0.8l-2.1-1.9c-0.3-0.3-0.8-0.5-1.2-0.5h-9
		c-0.4,0-0.9,0.2-1.2,0.5l-1.9,1.7c-0.4,0.3-0.6,0.8-0.6,1.3v1.6c0,0.5,0.2,1,0.6,1.3l1.9,1.7c0.3,0.3,0.8,0.5,1.2,0.5h8.6l1.5,1.4
		v1.7l-1.5,1.4h-8.4l-1.9-1.7c-0.2-0.2-0.5-0.3-0.8-0.3c-0.3,0-0.6,0.1-0.9,0.4c-0.2,0.2-0.3,0.5-0.3,0.8c0,0.3,0.1,0.6,0.4,0.9
		l2.1,1.9c0.3,0.3,0.8,0.4,1.2,0.4h8.9c0.5,0,0.9-0.2,1.2-0.5l1.9-1.7c0.4-0.3,0.6-0.8,0.6-1.3v-2.2c0-0.5-0.2-1-0.6-1.3L186.6,17.4
		z"/>
</g>
</svg>
