<?xml version="1.0" encoding="utf-8"?>
<!-- Generator: Adobe Illustrator 22.1.0, SVG Export Plug-In . SVG Version: 6.00 Build 0)  -->
<svg version="1.1" id="Layer_1" xmlns="http://www.w3.org/2000/svg" xmlns:xlink="http://www.w3.org/1999/xlink" x="0px" y="0px"
	 viewBox="0 0 191 36" style="enable-background:new 0 0 191 36;" xml:space="preserve">
<style type="text/css">
	.st0{fill:#2D98DA;stroke:#2D98DA;stroke-width:0.6;}
	.st1{fill:#2D98DA;}
</style>
<path class="st0" d="M29.8,1l4.8,8.5l4.8,8.5l-4.8,8.5L29.8,35H10.6l-4.8-8.5L1,18l4.8-8.5L10.6,1H29.8z M19.7,28.1L14,18l5.7-10.1
	h-5.2l-2.9,5.1l-2.9,5l2.9,5l2.9,5.1H19.7z M21,7.9L15.3,18L21,28.1h4.9l2.9-5.1l2.9-5l-2.9-5l-2.9-5.1H21z M11,33.2l2.5-4.5
	l-2.9-5.1L7.4,18l3.2-5.7l2.9-5.1L11,2.7l-4.1,7.3L2.3,18l4.5,7.9L11,33.2L11,33.2z M14.5,29.3l-2.5,4.5h17.2l4.5-7.9l4.5-7.9
	l-4.5-7.9l-4.5-7.9H11.9l2.5,4.5h12.2l3.2,5.7L33,18l-3.2,5.7l-3.2,5.7H14.5z"/>
<path class="st1" d="M61.4,18c0.2-0.2,0.2-0.6,0-0.8c-0.2-0.2-0.6-0.3-0.8,0l-1.9,1.7H49v-5.3h9.8c0.3,0,0.6-0.3,0.6-0.6
	c0-0.3-0.2-0.6-0.6-0.6H49V7.1h9.8l1.9,1.7c0.2,0.2,0.6,0.2,0.8,0c0.2-0.2,0.2-0.6,0-0.8l-1.9-1.7C59.3,6.1,59,6,58.7,6H48.4
	c-0.3,0-0.6,0.3-0.6,0.6V13v6.5c0,0.3,0.3,0.6,0.6,0.6h10.4c0.3,0,0.6-0.1,0.8-0.3L61.4,18z M83.2,5.8c-0.3,0-0.6,0.3-0.6,0.6v12.5
	h-1.1L71.3,6c-0.1-0.1-0.3-0.2-0.5-0.2H69c-0.3,0-0.6,0.3-0.6,0.6v13.1c0,0.3,0.3,0.6,0.6,0.6s0.6-0.3,0.6-0.6V6.9l1,0l10.2,12.9
	c0.1,0.1,0.3,0.2,0.5,0.2h2c0.3,0,0.6-0.3,0.6-0.6V6.4C83.8,6,83.5,5.8,83.2,5.8z M105,18c0.2-0.2,0.4-0.5,0.4-0.8V8.8
	c0-0.3-0.1-0.6-0.4-0.9l-1.9-1.7C103,6.1,102.7,6,102.4,6H91.1c-0.3,0-0.6,0.2-0.6,0.6v12.9c0,0.3,0.3,0.6,0.6,0.6h11.3
	c0.3,0,0.6-0.1,0.8-0.3L105,18z M91.7,18.8V7.1h10.7l1.9,1.7v8.3l-1.9,1.7h0H91.7z M114.5,19.7c0.2,0.2,0.5,0.3,0.8,0.3h9
	c0.3,0,0.6-0.1,0.8-0.3l2.1-1.9c0.1-0.1,0.2-0.3,0.2-0.4V13c0-0.3-0.3-0.6-0.6-0.6h-7c-0.3,0-0.6,0.3-0.6,0.6c0,0.3,0.3,0.6,0.6,0.6
	h6.4v3.6l-1.9,1.7h-9l-1.9-1.7V8.8l1.9-1.7h9l2.1,1.9c0.2,0.2,0.6,0.2,0.8,0c0.2-0.2,0.2-0.6,0-0.8l-2.1-1.9
	c-0.2-0.2-0.5-0.3-0.8-0.3h-9c-0.3,0-0.6,0.1-0.8,0.3L112.6,8c-0.2,0.2-0.4,0.5-0.4,0.9v8.3c0,0.3,0.1,0.6,0.4,0.9L114.5,19.7z
	 M148.1,19.4l-0.6-0.6h-1.7l-2.3-4.6h1.5c0.3,0,0.6-0.1,0.8-0.3l1.9-1.7c0.2-0.2,0.4-0.5,0.4-0.9V8.8c0-0.3-0.1-0.6-0.4-0.9
	l-1.9-1.7c-0.2-0.2-0.5-0.3-0.8-0.3h-10.4c-0.3,0-0.6,0.2-0.6,0.6v12.9c0,0.3,0.3,0.6,0.6,0.6c0.3,0,0.6-0.3,0.6-0.6v-5.2h7l2.6,5.3
	c0,0.1,0.1,0.1,0.1,0.2c0.2,0.2,0.5,0.3,0.8,0.3h1.7C147.9,20,148.1,19.7,148.1,19.4z M135.3,13.1v-6h9.8l1.9,1.7l0,2.5c0,0,0,0,0,0
	l-1.9,1.7v0H135.3z M166.2,6.4C166,6.1,165.7,6,165.4,6h-7.6c-0.3,0-0.6,0.1-0.9,0.4l-1.7,1.8C155.1,8.4,155,8.7,155,9v10.4
	c0,0.3,0.3,0.6,0.6,0.6c0.3,0,0.6-0.2,0.6-0.6v-5.2h11v5.2c0,0.3,0.3,0.6,0.6,0.6c0.3,0,0.6-0.2,0.6-0.6V9c0-0.3-0.1-0.6-0.3-0.8
	L166.2,6.4z M156.1,9l1.7-1.9c0,0,0,0,0,0h7.6c0,0,0,0,0,0l1.7,1.9v4.1h-11L156.1,9L156.1,9z M156.1,13.2
	C156.1,13.2,156.1,13.2,156.1,13.2L156.1,13.2z M167.1,13.2C167.1,13.2,167.1,13.2,167.1,13.2L167.1,13.2z M156.1,14.1
	C156.1,14.2,156.1,14.2,156.1,14.1L156.1,14.1z M167.1,14.2C167.1,14.2,167.1,14.2,167.1,14.2L167.1,14.2z M176.2,13.4h9.8
	c0.3,0,0.6-0.3,0.6-0.6c0-0.3-0.3-0.6-0.6-0.6h-9.8V6.9h9.8l1.9,1.7c0.2,0.2,0.6,0.2,0.8,0c0.2-0.2,0.2-0.6,0-0.8l-1.9-1.7
	c-0.2-0.2-0.5-0.3-0.8-0.3h-10.4c-0.3,0-0.6,0.3-0.6,0.6v6.4c0,0,0,0,0,0v6.6c0,0.3,0.3,0.6,0.6,0.6c0.3,0,0.6-0.3,0.6-0.6V13.4z"/>
<path class="st1" d="M61.4,18l0.3,0.3l0,0l0,0L61.4,18z M61.4,17.2l-0.3,0.3l0,0l0,0L61.4,17.2z M60.6,17.1l-0.3-0.3l0,0L60.6,17.1z
	 M58.7,18.9v0.4h0.2l0.1-0.1L58.7,18.9z M49,18.9h-0.4v0.4H49V18.9z M49,13.6v-0.4h-0.4v0.4H49z M49,12.4h-0.4v0.4H49V12.4z M49,7.1
	V6.7h-0.4v0.4H49z M58.7,7.1L59,6.8l-0.1-0.1h-0.2V7.1z M60.6,8.8l-0.3,0.3l0,0L60.6,8.8z M61.4,8.8l-0.3-0.3l0,0l0,0L61.4,8.8z
	 M61.4,8l0.3-0.3l0,0l0,0L61.4,8z M59.5,6.3l-0.3,0.3l0,0l0,0L59.5,6.3z M59.5,19.7l-0.3-0.3l0,0l0,0L59.5,19.7z M61.7,18.3
	c0.4-0.4,0.4-1,0-1.4l-0.6,0.6c0,0,0,0.1,0,0.1c0,0.1,0,0.1-0.1,0.1L61.7,18.3z M61.7,16.9c-0.4-0.4-1-0.4-1.4-0.1l0.5,0.6
	c0.1-0.1,0.2-0.1,0.3,0L61.7,16.9z M60.3,16.8l-1.9,1.7l0.5,0.6l1.9-1.7L60.3,16.8z M58.7,18.5H49v0.8h9.8V18.5z M49.4,18.9v-5.3
	h-0.8v5.3H49.4z M49,14h9.8v-0.8H49V14z M58.8,14c0.6,0,1-0.5,1-1H59c0,0.1,0,0.1,0,0.1c0,0-0.1,0-0.1,0V14z M59.8,13
	c0-0.5-0.4-1-1-1v0.8c0,0,0.1,0,0.1,0c0,0,0,0.1,0,0.1H59.8z M58.8,12H49v0.8h9.8V12z M49.4,12.4V7.1h-0.8v5.3H49.4z M49,7.5h9.8
	V6.7H49V7.5z M58.5,7.4l1.9,1.7l0.5-0.6L59,6.8L58.5,7.4z M60.3,9.1c0.4,0.4,1,0.3,1.4-0.1l-0.6-0.5c-0.1,0.1-0.2,0.1-0.3,0
	L60.3,9.1z M61.7,9.1c0.4-0.4,0.3-1,0-1.4l-0.6,0.6c0.1,0.1,0.1,0.2,0,0.2L61.7,9.1z M61.7,7.7L59.8,6l-0.5,0.6l1.9,1.7L61.7,7.7z
	 M59.8,6c-0.3-0.3-0.7-0.4-1.1-0.4v0.8c0.2,0,0.4,0.1,0.5,0.2L59.8,6z M58.7,5.6H48.4v0.8h10.4V5.6z M48.4,5.6c-0.5,0-1,0.4-1,1h0.8
	c0-0.1,0.1-0.2,0.2-0.2V5.6z M47.4,6.5V13h0.8V6.5H47.4z M47.4,13v6.5h0.8V13H47.4z M47.4,19.4c0,0.5,0.4,1,1,1v-0.8
	c-0.1,0-0.2-0.1-0.2-0.2H47.4z M48.4,20.4h10.4v-0.8H48.4V20.4z M58.7,20.4c0.4,0,0.8-0.1,1.1-0.4l-0.6-0.6
	c-0.1,0.1-0.3,0.2-0.5,0.2V20.4z M59.8,20l1.9-1.7l-0.5-0.6l-1.9,1.7L59.8,20z M82.6,18.8v0.4H83v-0.4H82.6z M81.5,18.8l-0.3,0.2
	l0.1,0.2h0.2V18.8z M71.3,6l0.3-0.2l0,0l0,0L71.3,6z M69.5,6.9l0-0.4l-0.4,0v0.4H69.5z M70.6,6.9l0.3-0.2l-0.1-0.2l-0.2,0L70.6,6.9z
	 M80.7,19.8l0.3-0.2l0,0l0,0L80.7,19.8z M83.2,5.4c-0.5,0-1,0.4-1,1H83c0-0.1,0.1-0.2,0.2-0.2V5.4z M82.2,6.4v12.5H83V6.4H82.2z
	 M82.6,18.4h-1.1v0.8h1.1V18.4z M81.8,18.6L71.6,5.8L71,6.2l10.2,12.8L81.8,18.6z M71.6,5.7c-0.2-0.2-0.5-0.4-0.8-0.4v0.8
	c0.1,0,0.1,0,0.2,0.1L71.6,5.7z M70.9,5.4H69v0.8h1.9V5.4z M69,5.4c-0.5,0-1,0.4-1,1h0.8c0-0.1,0.1-0.2,0.2-0.2V5.4z M68,6.4v13.1
	h0.8V6.4H68z M68,19.4c0,0.5,0.4,1,1,1v-0.8c-0.1,0-0.2-0.1-0.2-0.2H68z M69,20.4c0.5,0,1-0.4,1-1h-0.8c0,0.1-0.1,0.2-0.2,0.2V20.4z
	 M69.9,19.4V6.9h-0.8v12.5H69.9z M69.5,7.3l1,0l0-0.8l-1,0L69.5,7.3z M70.3,7.2L80.4,20l0.6-0.5L70.9,6.7L70.3,7.2z M80.4,20
	c0.2,0.3,0.5,0.4,0.8,0.4v-0.8c-0.1,0-0.1,0-0.1-0.1L80.4,20z M81.2,20.4h2v-0.8h-2V20.4z M83.2,20.4c0.5,0,1-0.4,1-1h-0.8
	c0,0.1-0.1,0.2-0.2,0.2V20.4z M84.2,19.4V6.4h-0.8v13.1H84.2z M84.2,6.4c0-0.5-0.4-1-1-1v0.8c0.1,0,0.2,0.1,0.2,0.2H84.2z M105,18
	l-0.3-0.3l0,0L105,18z M105,8l-0.3,0.3l0,0L105,8z M103.2,6.3l0.3-0.3l0,0L103.2,6.3z M103.2,19.7l0.3,0.3l0,0L103.2,19.7z
	 M91.7,18.8h-0.4v0.4h0.4V18.8z M91.7,7.1V6.7h-0.4v0.4H91.7z M102.4,7.1l0.3-0.3l-0.1-0.1h-0.2V7.1z M104.3,8.8h0.4V8.6l-0.1-0.1
	L104.3,8.8z M104.3,17.1l0.3,0.3l0.1-0.1v-0.2H104.3z M102.4,18.8v0.4h0.2l0.1-0.1L102.4,18.8z M105.3,18.3c0.3-0.3,0.5-0.7,0.5-1.1
	H105c0,0.2-0.1,0.4-0.3,0.5L105.3,18.3z M105.8,17.1V8.8H105v8.3H105.8z M105.8,8.8c0-0.5-0.2-0.9-0.5-1.2l-0.5,0.6
	c0.2,0.1,0.3,0.3,0.3,0.6H105.8z M105.3,7.7L103.5,6l-0.5,0.6l1.9,1.7L105.3,7.7z M103.5,6c-0.3-0.3-0.7-0.4-1-0.4v0.8
	c0.2,0,0.4,0.1,0.5,0.2L103.5,6z M102.4,5.6H91.1v0.8h11.3V5.6z M91.1,5.6c-0.5,0-1,0.4-1,1h0.8c0,0,0-0.1,0-0.1c0,0,0.1,0,0.1,0
	V5.6z M90.1,6.5v12.9h0.8V6.5H90.1z M90.1,19.4c0,0.5,0.4,1,1,1v-0.8c-0.1,0-0.2-0.1-0.2-0.2H90.1z M91.1,20.4h11.3v-0.8H91.1V20.4z
	 M102.4,20.4c0.4,0,0.8-0.1,1.1-0.4l-0.5-0.6c-0.1,0.1-0.3,0.2-0.5,0.2V20.4z M103.5,20l1.9-1.7l-0.5-0.6l-1.9,1.7L103.5,20z
	 M92.1,18.8V7.1h-0.8v11.7H92.1z M91.7,7.5h10.7V6.7H91.7V7.5z M102.1,7.4l1.9,1.7l0.5-0.6l-1.9-1.7L102.1,7.4z M103.9,8.8v8.3h0.8
	V8.8H103.9z M104,16.8l-1.9,1.7l0.5,0.6l1.9-1.7L104,16.8z M102.4,18.4L102.4,18.4l0,0.8h0V18.4z M102.4,18.4H91.7v0.8h10.7V18.4z
	 M114.5,19.7l0.3-0.3l0,0l0,0L114.5,19.7z M125.1,19.7l0.3,0.3l0,0L125.1,19.7z M127.1,17.8l0.3,0.3l0,0l0,0L127.1,17.8z
	 M126.2,13.6h0.4v-0.4h-0.4V13.6z M126.2,17.1l0.3,0.3l0.1-0.1v-0.2H126.2z M124.3,18.8v0.4h0.2l0.1-0.1L124.3,18.8z M115.2,18.8
	l-0.3,0.3l0.1,0.1h0.2V18.8z M113.4,17.1H113v0.2l0.1,0.1L113.4,17.1z M113.4,8.8l-0.3-0.3L113,8.7v0.2H113.4z M115.2,7.1V6.7h-0.2
	L115,6.8L115.2,7.1z M124.3,7.1l0.3-0.3l-0.1-0.1h-0.2V7.1z M126.3,9l-0.3,0.3l0,0L126.3,9z M127.2,9l0.3,0.3l0,0L127.2,9z
	 M127.1,8.2l-0.3,0.3l0,0L127.1,8.2z M125.1,6.3l-0.3,0.3l0,0l0,0L125.1,6.3z M114.5,6.3l0.3,0.3l0,0l0,0L114.5,6.3z M112.6,8
	l-0.3-0.3v0L112.6,8z M112.6,18l-0.3,0.3v0L112.6,18z M114.2,20c0.3,0.3,0.7,0.4,1.1,0.4v-0.8c-0.2,0-0.4-0.1-0.5-0.2L114.2,20z
	 M115.2,20.4h9v-0.8h-9V20.4z M124.3,20.4c0.4,0,0.8-0.2,1-0.4l-0.5-0.6c-0.1,0.1-0.3,0.2-0.5,0.2V20.4z M125.3,20l2.1-1.9l-0.5-0.6
	l-2.1,1.9L125.3,20z M127.4,18.1c0.2-0.2,0.3-0.5,0.3-0.7h-0.8c0,0.1,0,0.1-0.1,0.2L127.4,18.1z M127.7,17.4V13h-0.8v4.4H127.7z
	 M127.7,13c0-0.5-0.4-1-1-1v0.8c0.1,0,0.2,0.1,0.2,0.2H127.7z M126.7,12h-7v0.8h7V12z M119.8,12c-0.5,0-1,0.4-1,1h0.8
	c0-0.1,0.1-0.2,0.2-0.2V12z M118.8,13c0,0.5,0.4,1,1,1v-0.8c-0.1,0-0.2-0.1-0.2-0.2H118.8z M119.8,14h6.4v-0.8h-6.4V14z M125.8,13.6
	v3.6h0.8v-3.6H125.8z M125.9,16.8l-1.9,1.7l0.5,0.6l1.9-1.7L125.9,16.8z M124.3,18.4h-9v0.8h9V18.4z M115.5,18.5l-1.9-1.7l-0.5,0.6
	l1.9,1.7L115.5,18.5z M113.8,17.1V8.8H113v8.3H113.8z M113.6,9.1l1.9-1.7L115,6.8l-1.9,1.7L113.6,9.1z M115.2,7.5h9V6.7h-9V7.5z
	 M124,7.4l2.1,1.9l0.5-0.6l-2.1-1.9L124,7.4z M126.1,9.3c0.4,0.4,1,0.4,1.4,0l-0.6-0.5c0,0-0.1,0.1-0.1,0.1c0,0-0.1,0-0.1-0.1
	L126.1,9.3z M127.5,9.3c0.4-0.4,0.3-1-0.1-1.4l-0.5,0.6c0.1,0.1,0.1,0.2,0,0.3L127.5,9.3z M127.4,7.9L125.3,6l-0.5,0.6l2.1,1.9
	L127.4,7.9z M125.4,6c-0.3-0.3-0.7-0.4-1.1-0.4v0.8c0.2,0,0.4,0.1,0.5,0.2L125.4,6z M124.3,5.6h-9v0.8h9V5.6z M115.2,5.6
	c-0.4,0-0.8,0.1-1.1,0.4l0.6,0.6c0.1-0.1,0.3-0.2,0.5-0.2V5.6z M114.2,6l-1.9,1.7l0.5,0.6l1.9-1.7L114.2,6z M112.3,7.7
	c-0.3,0.3-0.5,0.7-0.5,1.2h0.8c0-0.2,0.1-0.4,0.2-0.6L112.3,7.7z M111.8,8.8v8.3h0.8V8.8H111.8z M111.8,17.1c0,0.4,0.2,0.8,0.5,1.2
	l0.5-0.6c-0.1-0.1-0.2-0.3-0.2-0.6H111.8z M112.3,18.3l1.9,1.7l0.5-0.6l-1.9-1.7L112.3,18.3z M148.1,19.4h0.4v-0.2l-0.1-0.1
	L148.1,19.4z M147.6,18.8l0.3-0.3l-0.1-0.1h-0.2V18.8z M145.9,18.8l-0.4,0.2l0.1,0.2h0.2V18.8z M143.6,14.2v-0.4H143l0.3,0.6
	L143.6,14.2z M145.8,13.9l-0.3-0.3l0,0l0,0L145.8,13.9z M147.7,12.2l0.3,0.3l0,0l0,0L147.7,12.2z M147.7,8l0.3-0.3l0,0l0,0L147.7,8z
	 M145.8,6.3l-0.3,0.3l0,0l0,0L145.8,6.3z M135.3,14.2v-0.4h-0.4v0.4H135.3z M142.3,14.2l0.4-0.2l-0.1-0.2h-0.2V14.2z M144.9,19.5
	l0.4-0.1l0,0l0,0L144.9,19.5z M145.1,19.7l-0.3,0.3l0,0l0,0L145.1,19.7z M135.3,13.1h-0.4v0.4h0.4V13.1z M135.3,7.1V6.7h-0.4v0.4
	H135.3z M145.1,7.1l0.3-0.3l-0.1-0.1h-0.2V7.1z M146.9,8.8l0.4,0l0-0.2l-0.1-0.1L146.9,8.8z M146.9,11.3v0.4h0.4l0-0.4L146.9,11.3z
	 M146.9,11.3l0.3,0.3l0.1-0.1v-0.2H146.9z M145.1,13l-0.3-0.3l-0.1,0.1V13H145.1z M145.1,13.1v0.4h0.4v-0.4H145.1z M148.4,19.1
	l-0.6-0.6l-0.6,0.6l0.6,0.6L148.4,19.1z M147.6,18.4h-1.7v0.8h1.7V18.4z M146.2,18.7L144,14l-0.7,0.4l2.3,4.6L146.2,18.7z
	 M143.6,14.6h1.5v-0.8h-1.5V14.6z M145.1,14.6c0.4,0,0.8-0.1,1.1-0.4l-0.6-0.6c-0.1,0.1-0.3,0.2-0.5,0.2V14.6z M146.1,14.2l1.9-1.7
	l-0.5-0.6l-1.9,1.7L146.1,14.2z M148,12.5c0.3-0.3,0.5-0.7,0.5-1.1h-0.8c0,0.2-0.1,0.4-0.2,0.6L148,12.5z M148.5,11.3V8.8h-0.8v2.5
	H148.5z M148.5,8.8c0-0.4-0.2-0.9-0.5-1.1l-0.6,0.6c0.1,0.1,0.2,0.4,0.2,0.6H148.5z M148,7.7L146.1,6l-0.5,0.6l1.9,1.7L148,7.7z
	 M146.1,6c-0.3-0.3-0.7-0.4-1.1-0.4v0.8c0.2,0,0.4,0.1,0.5,0.2L146.1,6z M145.1,5.6h-10.4v0.8h10.4V5.6z M134.7,5.6
	c-0.5,0-1,0.4-1,1h0.8c0,0,0-0.1,0-0.1c0,0,0.1,0,0.1,0V5.6z M133.7,6.5v12.9h0.8V6.5H133.7z M133.7,19.4c0,0.5,0.4,1,1,1v-0.8
	c-0.1,0-0.2-0.1-0.2-0.2H133.7z M134.7,20.4c0.5,0,1-0.4,1-1h-0.8c0,0.1-0.1,0.2-0.2,0.2V20.4z M135.7,19.4v-5.2h-0.8v5.2H135.7z
	 M135.3,14.6h7v-0.8h-7V14.6z M142,14.4l2.6,5.3l0.7-0.4l-2.6-5.3L142,14.4z M144.6,19.6c0,0.1,0.1,0.2,0.2,0.3l0.6-0.6c0,0,0,0,0,0
	c0,0,0,0,0,0L144.6,19.6z M144.8,20c0.3,0.3,0.7,0.4,1,0.4v-0.8c-0.2,0-0.4-0.1-0.5-0.2L144.8,20z M145.8,20.4h1.7v-0.8h-1.7V20.4z
	 M147.6,20.4c0.5,0,1-0.4,1-1h-0.8c0,0.1-0.1,0.2-0.2,0.2V20.4z M135.7,13.1v-6h-0.8v6H135.7z M135.3,7.5h9.8V6.7h-9.8V7.5z
	 M144.8,7.4l1.9,1.7l0.5-0.6l-1.9-1.7L144.8,7.4z M146.5,8.8l0,2.5l0.8,0l0-2.5L146.5,8.8z M146.9,11.3c0-0.4,0-0.4,0-0.4l0,0
	c0,0,0,0,0,0c0,0,0,0,0,0s0,0,0,0c0,0,0,0,0,0c0,0,0,0,0,0c0,0,0,0,0,0c0,0-0.1,0-0.1,0c0,0-0.1,0.1-0.2,0.1
	c-0.1,0.1-0.1,0.2-0.1,0.2h0.8c0,0.1,0,0.1-0.1,0.2c0,0.1-0.1,0.1-0.1,0.1c0,0-0.1,0-0.1,0c0,0,0,0,0,0c0,0,0,0,0,0c0,0,0,0,0,0
	c0,0,0,0,0,0c0,0,0,0,0,0h0l0,0C146.9,11.7,146.9,11.7,146.9,11.3z M146.7,11l-1.9,1.7l0.5,0.6l1.9-1.7L146.7,11z M144.7,13
	L144.7,13l0.8,0v0H144.7z M145.1,12.7h-9.8v0.8h9.8V12.7z M166.2,6.4l-0.3,0.3l0,0l0,0L166.2,6.4z M157,6.4l0.3,0.3l0,0L157,6.4z
	 M155.3,8.2L155,7.9l0,0L155.3,8.2z M156.1,14.2v-0.4h-0.4v0.4H156.1z M167.1,14.2h0.4v-0.4h-0.4V14.2z M168,8.2l0.3-0.3l0,0l0,0
	L168,8.2z M156.1,9v0.4h0.2l0.1-0.1L156.1,9z M157.8,7.1l0.3,0.3l0.1-0.1V7.1H157.8z M165.4,7.1H165v0.2l0.1,0.1L165.4,7.1z
	 M167.1,9h0.4V8.8l-0.1-0.1L167.1,9z M167.1,13.1v0.4h0.4v-0.4H167.1z M156.1,13.1h-0.4v0.4h0.4V13.1z M156.1,9V8.6h-0.4V9H156.1z
	 M156.1,13.2v-0.4h-0.4v0.4H156.1z M156.1,13.2h-0.4v0.4h0.4V13.2z M167.1,13.2v0.4h0.4v-0.4H167.1z M167.1,13.2h0.4v-0.4h-0.4V13.2
	z M156.1,14.1l0.4-0.2l-0.8,0.2H156.1z M156.1,14.2h-0.4v1l0.7-0.7L156.1,14.2z M167.1,14.2l-0.3,0.3l0.7,0.7v-1H167.1z M167.1,14.1
	h0.4l-0.8-0.2L167.1,14.1z M166.5,6.1c-0.3-0.4-0.7-0.5-1.1-0.5v0.8c0.2,0,0.4,0.1,0.5,0.2L166.5,6.1z M165.4,5.6h-7.6v0.8h7.6V5.6z
	 M157.8,5.6c-0.4,0-0.9,0.2-1.2,0.5l0.6,0.5c0.1-0.1,0.3-0.2,0.6-0.2V5.6z M156.7,6.1L155,7.9l0.6,0.5l1.7-1.8L156.7,6.1z M155,7.9
	c-0.3,0.3-0.4,0.7-0.4,1.1h0.8c0-0.2,0.1-0.4,0.2-0.5L155,7.9z M154.6,9v10.4h0.8V9H154.6z M154.6,19.4c0,0.6,0.4,1,1,1v-0.8
	c-0.1,0-0.2-0.1-0.2-0.2H154.6z M155.5,20.4c0.5,0,1-0.4,1-1h-0.8c0,0,0,0.1,0,0.1c0,0-0.1,0-0.1,0V20.4z M156.5,19.4v-5.2h-0.8v5.2
	H156.5z M156.1,14.6h11v-0.8h-11V14.6z M166.7,14.2v5.2h0.8v-5.2H166.7z M166.7,19.4c0,0.6,0.5,1,1,1v-0.8c-0.1,0-0.1,0-0.1,0
	c0,0,0-0.1,0-0.1H166.7z M167.7,20.4c0.5,0,1-0.4,1-1h-0.8c0,0,0,0.1,0,0.1c0,0-0.1,0-0.1,0V20.4z M168.7,19.4V9h-0.8v10.4H168.7z
	 M168.7,9c0-0.4-0.2-0.8-0.4-1.1l-0.6,0.5c0.1,0.2,0.2,0.4,0.2,0.5H168.7z M168.3,7.9l-1.7-1.8l-0.6,0.5l1.7,1.8L168.3,7.9z
	 M156.4,9.3l1.7-1.9l-0.6-0.5l-1.7,1.9L156.4,9.3z M158.2,7.1C158.2,7.1,158.2,7.1,158.2,7.1c0,0.1,0,0.2-0.1,0.3
	c-0.1,0.1-0.2,0.1-0.2,0.1c0,0,0,0,0,0V6.7c0,0,0,0,0,0c0,0,0,0,0,0c0,0-0.1,0-0.2,0.1c-0.1,0.1-0.1,0.2-0.1,0.2c0,0,0,0,0,0
	c0,0,0,0,0,0H158.2z M157.8,7.5h7.6V6.7h-7.6V7.5z M165.4,7.1c0,0.4,0,0.4,0,0.4l0,0c0,0,0,0,0,0c0,0,0,0,0,0c0,0,0,0,0,0
	c0,0,0,0,0,0c0,0,0,0,0,0c0,0,0,0,0,0c0,0-0.1,0-0.1,0c0,0-0.1-0.1-0.1-0.1c0-0.1-0.1-0.1-0.1-0.2h0.8c0-0.1,0-0.2-0.1-0.2
	c0-0.1-0.1-0.1-0.2-0.1c0,0-0.1,0-0.1,0c0,0,0,0,0,0c0,0,0,0,0,0c0,0,0,0,0,0c0,0,0,0,0,0c0,0,0,0,0,0h0l0,0
	C165.4,6.7,165.4,6.7,165.4,7.1z M165.1,7.4l1.7,1.9l0.6-0.5l-1.7-1.9L165.1,7.4z M166.7,9v4.1h0.8V9H166.7z M167.1,12.7h-11v0.8h11
	V12.7z M156.5,13.1V9h-0.8v4.1H156.5z M156.1,9.4L156.1,9.4l0-0.8h0V9.4z M156.1,13.6c-0.1,0-0.4-0.1-0.4-0.4c0-0.3,0.3-0.4,0.4-0.4
	V13.6c0.1,0,0.4-0.1,0.4-0.4c0-0.3-0.3-0.4-0.4-0.4V13.6z M156.5,13.2L156.5,13.2l-0.8,0v0H156.5z M167.1,12.8
	c0.1,0,0.4,0.1,0.4,0.4c0,0.3-0.3,0.4-0.4,0.4V12.8c-0.1,0-0.4,0.1-0.4,0.4c0,0.3,0.3,0.4,0.4,0.4V12.8z M166.7,13.2L166.7,13.2
	l0.8,0v0H166.7z M155.7,14.3C155.7,14.3,155.7,14.3,155.7,14.3c0,0,0-0.1,0-0.1c0-0.1,0-0.2,0.1-0.2c0,0,0,0,0,0l0.6,0.6
	c0,0,0,0,0,0c0,0,0,0,0,0c0-0.1,0.1-0.1,0.1-0.2c0-0.1,0-0.2,0-0.2c0,0,0,0,0,0L155.7,14.3z M156.5,14.2L156.5,14.2l-0.8-0.1v0.1
	H156.5z M167.4,13.9C167.4,13.9,167.4,13.9,167.4,13.9c0.1,0.1,0.1,0.2,0.1,0.3c0,0.1,0,0.1,0,0.1c0,0,0,0,0,0l-0.7-0.4c0,0,0,0,0,0
	c0,0,0,0.1,0,0.2c0,0.1,0,0.2,0.1,0.2c0,0,0,0,0,0c0,0,0,0,0,0L167.4,13.9z M166.7,14.1L166.7,14.1l0.8,0.1v-0.1H166.7z M176.2,13.4
	V13h-0.4v0.4H176.2z M176.2,12.2h-0.4v0.4h0.4V12.2z M176.2,6.9V6.5h-0.4v0.4H176.2z M186,6.9l0.3-0.3l-0.1-0.1H186V6.9z M187.9,8.7
	l0.3-0.3l0,0l0,0L187.9,8.7z M188.7,8.6l-0.3-0.3l0,0l0,0L188.7,8.6z M188.7,7.8l0.3-0.3l0,0l0,0L188.7,7.8z M186.8,6.1l0.3-0.3l0,0
	L186.8,6.1z M176.2,13.8h9.8V13h-9.8V13.8z M186.1,13.8c0.5,0,1-0.4,1-1h-0.8c0,0.1-0.1,0.2-0.2,0.2V13.8z M187.1,12.8
	c0-0.5-0.4-1-1-1v0.8c0.1,0,0.2,0.1,0.2,0.2H187.1z M186.1,11.8h-9.8v0.8h9.8V11.8z M176.6,12.2V6.9h-0.8v5.3H176.6z M176.2,7.3h9.8
	V6.5h-9.8V7.3z M185.7,7.2l1.9,1.7l0.5-0.6l-1.9-1.7L185.7,7.2z M187.6,8.9c0.4,0.4,1,0.4,1.4,0l-0.6-0.5c0,0,0,0-0.1,0
	c0,0-0.1,0-0.1,0L187.6,8.9z M189,8.9c0.4-0.4,0.3-1,0-1.4l-0.6,0.6c0.1,0.1,0.1,0.2,0,0.3L189,8.9z M188.9,7.5l-1.9-1.7l-0.5,0.6
	l1.9,1.7L188.9,7.5z M187.1,5.8c-0.3-0.3-0.7-0.4-1.1-0.4v0.8c0.2,0,0.4,0.1,0.5,0.2L187.1,5.8z M186,5.4h-10.4v0.8H186V5.4z
	 M175.7,5.4c-0.5,0-1,0.4-1,1h0.8c0-0.1,0.1-0.2,0.2-0.2V5.4z M174.7,6.4v6.4h0.8V6.4H174.7z M175.1,12.8h-0.4l0,0l0,0l0,0l0,0l0,0
	l0,0l0,0l0,0l0,0l0,0l0,0l0,0l0,0l0,0l0,0l0,0l0,0l0,0l0,0l0,0l0,0l0,0l0,0l0,0l0,0l0,0l0,0l0,0l0,0l0,0l0,0l0,0l0,0l0,0l0,0l0,0
	l0,0l0,0l0,0l0,0l0,0l0,0l0,0l0,0l0,0l0,0l0,0l0,0l0,0l0,0l0,0l0,0l0,0l0,0l0,0l0,0l0,0l0,0l0,0l0,0l0,0l0,0l0,0l0,0l0,0l0,0l0,0
	l0,0v0l0,0l0,0l0,0l0,0l0,0l0,0l0,0l0,0l0,0l0,0l0,0l0,0l0,0l0,0l0,0l0,0l0,0l0,0l0,0l0,0l0,0l0,0l0,0l0,0l0,0l0,0l0,0l0,0l0,0l0,0
	c0,0,0,0,0,0l0,0l0,0l0,0l0,0l0,0l0,0l0,0l0,0l0,0l0,0l0,0l0,0l0,0l0,0l0,0l0,0l0,0c0,0,0,0,0,0l0,0l0,0l0,0l0,0l0,0l0,0l0,0l0,0
	l0,0l0,0l0,0l0,0l0,0c0,0,0,0,0,0l0,0l0,0l0,0l0,0l0,0l0,0l0,0l0,0l0,0l0,0l0,0v0l0,0l0,0l0,0l0,0l0,0l0,0l0,0l0,0l0,0v0l0,0l0,0
	l0,0l0,0l0,0l0,0l0,0l0,0v0l0,0l0,0l0,0l0,0l0,0l0,0l0,0v0l0,0l0,0l0,0l0,0l0,0l0,0c0,0,0,0,0,0l0,0l0,0l0,0l0,0l0,0l0,0v0l0,0l0,0
	l0,0l0,0l0,0c0,0,0,0,0,0l0,0l0,0l0,0l0,0l0,0v0l0,0l0,0l0,0l0,0l0,0c0,0,0,0,0,0l0,0l0,0l0,0l0,0v0l0,0l0,0l0,0l0,0v0l0,0l0,0l0,0
	l0,0c0,0,0,0,0,0l0,0l0,0l0,0c0,0,0,0,0,0l0,0l0,0l0,0l0,0c0,0,0,0,0,0l0,0l0,0l0,0v0l0,0l0,0l0,0v0l0,0l0,0l0,0v0l0,0l0,0l0,0v0
	l0,0l0,0l0,0c0,0,0,0,0,0l0,0l0,0c0,0,0,0,0,0l0,0l0,0l0,0c0,0,0,0,0,0l0,0l0,0c0,0,0,0,0,0l0,0l0,0l0,0c0,0,0,0,0,0l0,0l0,0
	c0,0,0,0,0,0l0,0l0,0v0l0,0l0,0v0l0,0l0,0v0l0,0l0,0v0l0,0l0,0v0l0,0l0,0c0,0,0,0,0,0l0,0l0,0c0,0,0,0,0,0l0,0c0,0,0,0,0,0l0,0l0,0
	v0l0,0l0,0c0,0,0,0,0,0l0,0v0l0,0l0,0c0,0,0,0,0,0l0,0c0,0,0,0,0,0l0,0l0,0c0,0,0,0,0,0l0,0v0l0,0c0,0,0,0,0,0l0,0l0,0c0,0,0,0,0,0
	l0,0v0l0,0c0,0,0,0,0,0l0,0l0,0c0,0,0,0,0,0l0,0c0,0,0,0,0,0l0,0v0l0,0v0l0,0c0,0,0,0,0,0l0,0c0,0,0,0,0,0l0,0c0,0,0,0,0,0l0,0
	c0,0,0,0,0,0l0,0c0,0,0,0,0,0l0,0c0,0,0,0,0,0l0,0c0,0,0,0,0,0l0,0c0,0,0,0,0,0l0,0c0,0,0,0,0,0l0,0c0,0,0,0,0,0l0,0v0l0,0v0l0,0
	c0,0,0,0,0,0l0,0c0,0,0,0,0,0s0,0,0,0l0,0c0,0,0,0,0,0l0,0v0l0,0c0,0,0,0,0,0s0,0,0,0l0,0c0,0,0,0,0,0l0,0v0l0,0c0,0,0,0,0,0
	s0,0,0,0l0,0v0l0,0c0,0,0,0,0,0s0,0,0,0l0,0c0,0,0,0,0,0s0,0,0,0l0,0v0l0,0c0,0,0,0,0,0v0l0,0c0,0,0,0,0,0s0,0,0,0l0,0c0,0,0,0,0,0
	s0,0,0,0l0,0c0,0,0,0,0,0s0,0,0,0l0,0c0,0,0,0,0,0v0l0,0c0,0,0,0,0,0v0c0,0,0,0,0,0l0,0v0c0,0,0,0,0,0l0,0c0,0,0,0,0,0v0
	c0,0,0,0,0,0l0,0v0c0,0,0,0,0,0l0,0c0,0,0,0,0,0v0c0,0,0,0,0,0l0,0c0,0,0,0,0,0v0c0,0,0,0,0,0l0,0c0,0,0,0,0,0c0,0,0,0,0,0v0
	c0,0,0,0,0,0l0,0c0,0,0,0,0,0v0v0c0,0,0,0,0,0l0,0c0,0,0,0,0,0v0v0c0,0,0,0,0,0l0,0c0,0,0,0,0,0c0,0,0,0,0,0v0v0c0,0,0,0,0,0l0,0
	c0,0,0,0,0,0c0,0,0,0,0,0v0v0v0c0,0,0,0,0,0c0,0,0,0,0,0l0,0c0,0,0,0,0,0c0,0,0,0,0,0v0v0v0c0,0,0,0,0,0c0,0,0,0,0,0c0,0,0,0,0,0
	c0,0,0,0,0,0l0,0c0,0,0,0,0,0c0,0,0,0,0,0c0,0,0,0,0,0c0,0,0,0,0,0v0v0v0v0v0v0c0,0,0,0,0,0c0,0,0,0,0,0c0,0,0,0,0,0c0,0,0,0,0,0
	c0,0,0,0,0,0c0,0,0,0,0,0c0,0,0,0,0,0c0,0,0,0,0,0c0,0,0,0,0,0c0,0,0,0,0,0c0,0,0,0,0,0c0,0,0,0,0,0c0,0,0,0,0,0c0,0,0,0,0,0
	c0,0,0,0,0,0c0,0,0,0,0,0c0,0,0,0,0,0v0v0v0v0v0v0v0c0,0,0,0,0,0c0,0,0,0,0,0c0,0,0,0,0,0c0,0,0,0,0,0c0,0,0,0,0,0c0,0,0,0,0,0
	c0,0,0,0,0,0c0,0,0,0,0,0v0v0v0c0,0,0,0,0,0c0,0,0,0,0,0c0,0,0,0,0,0c0,0,0,0,0,0c0,0,0,0,0,0v0v0v0c0,0,0,0,0,0c0,0,0,0,0,0
	c0,0,0,0,0,0c0,0,0,0,0,0v0h0.8v0c0,0,0,0,0,0c0,0,0,0,0,0c0,0,0,0,0,0c0,0,0,0,0,0v0v0v0c0,0,0,0,0,0c0,0,0,0,0,0c0,0,0,0,0,0
	c0,0,0,0,0,0c0,0,0,0,0,0v0v0v0c0,0,0,0,0,0c0,0,0,0,0,0c0,0,0,0,0,0c0,0,0,0,0,0c0,0,0,0,0,0c0,0,0,0,0,0c0,0,0,0,0,0c0,0,0,0,0,0
	v0v0v0v0v0v0v0c0,0,0,0,0,0c0,0,0,0,0,0c0,0,0,0,0,0c0,0,0,0,0,0c0,0,0,0,0,0c0,0,0,0,0,0c0,0,0,0,0,0c0,0,0,0,0,0c0,0,0,0,0,0
	c0,0,0,0,0,0c0,0,0,0,0,0c0,0,0,0,0,0c0,0,0,0,0,0c0,0,0,0,0,0c0,0,0,0,0,0c0,0,0,0,0,0c0,0,0,0,0,0v0v0v0v0v0v0c0,0,0,0,0,0
	c0,0,0,0,0,0c0,0,0,0,0,0c0,0,0,0,0,0l0,0c0,0,0,0,0,0c0,0,0,0,0,0c0,0,0,0,0,0c0,0,0,0,0,0v0v0v0c0,0,0,0,0,0c0,0,0,0,0,0l0,0
	c0,0,0,0,0,0c0,0,0,0,0,0v0v0v0c0,0,0,0,0,0c0,0,0,0,0,0l0,0c0,0,0,0,0,0v0v0c0,0,0,0,0,0c0,0,0,0,0,0l0,0c0,0,0,0,0,0v0v0
	c0,0,0,0,0,0l0,0c0,0,0,0,0,0v0v0c0,0,0,0,0,0l0,0c0,0,0,0,0,0v0c0,0,0,0,0,0c0,0,0,0,0,0l0,0c0,0,0,0,0,0v0c0,0,0,0,0,0l0,0
	c0,0,0,0,0,0v0c0,0,0,0,0,0l0,0c0,0,0,0,0,0v0l0,0c0,0,0,0,0,0v0c0,0,0,0,0,0l0,0c0,0,0,0,0,0v0l0,0c0,0,0,0,0,0v0c0,0,0,0,0,0l0,0
	v0c0,0,0,0,0,0l0,0c0,0,0,0,0,0s0,0,0,0l0,0c0,0,0,0,0,0s0,0,0,0l0,0c0,0,0,0,0,0s0,0,0,0l0,0v0c0,0,0,0,0,0l0,0v0l0,0c0,0,0,0,0,0
	s0,0,0,0l0,0c0,0,0,0,0,0s0,0,0,0l0,0v0l0,0c0,0,0,0,0,0s0,0,0,0l0,0v0l0,0c0,0,0,0,0,0l0,0c0,0,0,0,0,0s0,0,0,0l0,0v0l0,0
	c0,0,0,0,0,0l0,0c0,0,0,0,0,0s0,0,0,0l0,0c0,0,0,0,0,0l0,0v0l0,0v0l0,0c0,0,0,0,0,0l0,0c0,0,0,0,0,0l0,0c0,0,0,0,0,0l0,0
	c0,0,0,0,0,0l0,0c0,0,0,0,0,0l0,0c0,0,0,0,0,0l0,0c0,0,0,0,0,0l0,0c0,0,0,0,0,0l0,0c0,0,0,0,0,0l0,0c0,0,0,0,0,0l0,0v0l0,0v0l0,0
	c0,0,0,0,0,0l0,0c0,0,0,0,0,0l0,0l0,0c0,0,0,0,0,0l0,0v0l0,0c0,0,0,0,0,0l0,0l0,0c0,0,0,0,0,0l0,0v0l0,0c0,0,0,0,0,0l0,0l0,0
	c0,0,0,0,0,0l0,0c0,0,0,0,0,0l0,0l0,0v0l0,0c0,0,0,0,0,0l0,0l0,0v0l0,0l0,0c0,0,0,0,0,0l0,0c0,0,0,0,0,0l0,0l0,0c0,0,0,0,0,0l0,0
	l0,0v0l0,0l0,0v0l0,0l0,0v0l0,0l0,0v0l0,0l0,0v0l0,0l0,0c0,0,0,0,0,0l0,0l0,0c0,0,0,0,0,0l0,0l0,0l0,0c0,0,0,0,0,0l0,0l0,0
	c0,0,0,0,0,0l0,0l0,0l0,0c0,0,0,0,0,0l0,0l0,0c0,0,0,0,0,0l0,0l0,0l0,0v0l0,0l0,0l0,0v0l0,0l0,0l0,0v0l0,0l0,0l0,0v0l0,0l0,0l0,0
	c0,0,0,0,0,0l0,0l0,0l0,0l0,0c0,0,0,0,0,0l0,0l0,0l0,0c0,0,0,0,0,0l0,0l0,0l0,0l0,0v0l0,0l0,0l0,0l0,0v0l0,0l0,0l0,0l0,0
	c0,0,0,0,0,0l0,0l0,0l0,0l0,0l0,0v0l0,0l0,0l0,0l0,0l0,0c0,0,0,0,0,0l0,0l0,0l0,0l0,0l0,0v0l0,0l0,0l0,0l0,0l0,0l0,0c0,0,0,0,0,0
	l0,0l0,0l0,0l0,0l0,0l0,0v0l0,0l0,0l0,0l0,0l0,0l0,0l0,0v0l0,0l0,0l0,0l0,0l0,0l0,0l0,0l0,0v0l0,0l0,0l0,0l0,0l0,0l0,0l0,0l0,0l0,0
	v0l0,0l0,0l0,0l0,0l0,0l0,0l0,0l0,0l0,0l0,0l0,0c0,0,0,0,0,0l0,0l0,0l0,0l0,0l0,0l0,0l0,0l0,0l0,0l0,0l0,0l0,0l0,0c0,0,0,0,0,0l0,0
	l0,0l0,0l0,0l0,0l0,0l0,0l0,0l0,0l0,0l0,0l0,0l0,0l0,0l0,0l0,0l0,0c0,0,0,0,0,0l0,0l0,0l0,0l0,0l0,0l0,0l0,0l0,0l0,0l0,0l0,0l0,0
	l0,0l0,0l0,0l0,0l0,0l0,0l0,0l0,0l0,0l0,0l0,0l0,0l0,0l0,0l0,0l0,0l0,0l0,0v0l0,0l0,0l0,0l0,0l0,0l0,0l0,0l0,0l0,0l0,0l0,0l0,0l0,0
	l0,0l0,0l0,0l0,0l0,0l0,0l0,0l0,0l0,0l0,0l0,0l0,0l0,0l0,0l0,0l0,0l0,0l0,0l0,0l0,0l0,0l0,0l0,0l0,0l0,0l0,0l0,0l0,0l0,0l0,0l0,0
	l0,0l0,0l0,0l0,0l0,0l0,0l0,0l0,0l0,0l0,0l0,0l0,0l0,0l0,0l0,0l0,0l0,0l0,0l0,0l0,0l0,0l0,0l0,0l0,0H175.1z M174.7,12.8v6.6h0.8
	v-6.6H174.7z M174.7,19.4c0,0.5,0.4,1,1,1v-0.8c-0.1,0-0.2-0.1-0.2-0.2H174.7z M175.7,20.4c0.5,0,1-0.4,1-1h-0.8
	c0,0.1-0.1,0.2-0.2,0.2V20.4z M176.6,19.4v-6h-0.8v6H176.6z"/>
<path class="st1" d="M50.9,29.7h-2.3V32h-1.2v-5.7h3.7v0.9h-2.5v1.5h2.3V29.7z M64.4,29.3c0,0.6-0.1,1.1-0.3,1.5
	c-0.2,0.4-0.5,0.7-0.9,1c-0.4,0.2-0.8,0.3-1.3,0.3c-0.5,0-0.9-0.1-1.3-0.3c-0.4-0.2-0.7-0.5-0.9-1c-0.2-0.4-0.3-0.9-0.3-1.5V29
	c0-0.6,0.1-1.1,0.3-1.5c0.2-0.4,0.5-0.8,0.9-1c0.4-0.2,0.8-0.3,1.3-0.3c0.5,0,0.9,0.1,1.3,0.3c0.4,0.2,0.7,0.6,0.9,1
	c0.2,0.4,0.3,0.9,0.3,1.5V29.3z M63.2,29c0-0.6-0.1-1-0.3-1.4c-0.2-0.3-0.5-0.5-0.9-0.5c-0.4,0-0.7,0.2-0.9,0.5
	c-0.2,0.3-0.3,0.8-0.3,1.3v0.3c0,0.6,0.1,1,0.3,1.4c0.2,0.3,0.5,0.5,0.9,0.5c0.4,0,0.7-0.2,0.9-0.5c0.2-0.3,0.3-0.8,0.3-1.4V29z
	 M75.1,29.9h-0.9V32H73v-5.7h2.1c0.7,0,1.2,0.1,1.6,0.4s0.5,0.7,0.5,1.3c0,0.4-0.1,0.7-0.3,1c-0.2,0.3-0.4,0.5-0.8,0.6l1.2,2.3V32
	h-1.3L75.1,29.9z M74.2,29h0.9c0.3,0,0.5-0.1,0.7-0.2c0.2-0.2,0.2-0.4,0.2-0.6c0-0.3-0.1-0.5-0.2-0.6c-0.2-0.2-0.4-0.2-0.7-0.2h-0.9
	V29z M98.9,30.8h-2.1L96.5,32h-1.2l2.1-5.7h1.1l2.1,5.7h-1.2L98.9,30.8z M97.2,29.9h1.4l-0.7-2.1L97.2,29.9z M113.3,30.1
	c0,0.6-0.3,1.1-0.7,1.4c-0.4,0.4-0.9,0.5-1.6,0.5c-0.7,0-1.3-0.2-1.7-0.7c-0.4-0.5-0.6-1.2-0.6-2V29c0-0.5,0.1-1,0.3-1.4
	c0.2-0.4,0.5-0.7,0.8-1c0.4-0.2,0.8-0.3,1.3-0.3c0.7,0,1.2,0.2,1.6,0.5c0.4,0.4,0.6,0.8,0.7,1.5h-1.2c0-0.4-0.1-0.6-0.3-0.8
	c-0.2-0.2-0.4-0.3-0.8-0.3c-0.4,0-0.7,0.1-0.9,0.4c-0.2,0.3-0.3,0.7-0.3,1.3v0.4c0,0.6,0.1,1.1,0.3,1.3c0.2,0.3,0.5,0.4,0.9,0.4
	c0.4,0,0.6-0.1,0.8-0.2c0.2-0.2,0.3-0.4,0.3-0.8H113.3z M125.1,30.8H123l-0.4,1.2h-1.2l2.1-5.7h1.1l2.1,5.7h-1.2L125.1,30.8z
	 M123.3,29.9h1.4l-0.7-2.1L123.3,29.9z M135,32v-5.7h1.8c0.5,0,0.9,0.1,1.3,0.3c0.4,0.2,0.7,0.5,0.9,1c0.2,0.4,0.3,0.9,0.3,1.4v0.3
	c0,0.5-0.1,1-0.3,1.4c-0.2,0.4-0.5,0.7-0.9,1c-0.4,0.2-0.8,0.3-1.3,0.3H135z M136.2,27.3v3.8h0.6c0.5,0,0.8-0.1,1.1-0.4
	s0.4-0.7,0.4-1.3V29c0-0.6-0.1-1-0.4-1.3c-0.2-0.3-0.6-0.4-1.1-0.4H136.2z M151.5,29.5h-2.3v1.5h2.6V32H148v-5.7h3.8v0.9h-2.6v1.4
	h2.3V29.5z M161.9,26.3l1.5,4.1l1.5-4.1h1.5V32h-1.2v-1.6l0.1-2.7l-1.5,4.2h-0.8l-1.5-4.2l0.1,2.7V32h-1.2v-5.7H161.9z M176.4,32
	h-1.2v-5.7h1.2V32z M189.7,30.1c0,0.6-0.3,1.1-0.7,1.4c-0.4,0.4-0.9,0.5-1.6,0.5c-0.7,0-1.3-0.2-1.7-0.7c-0.4-0.5-0.6-1.2-0.6-2V29
	c0-0.5,0.1-1,0.3-1.4c0.2-0.4,0.5-0.7,0.8-1c0.4-0.2,0.8-0.3,1.3-0.3c0.7,0,1.2,0.2,1.6,0.5c0.4,0.4,0.6,0.8,0.7,1.5h-1.2
	c0-0.4-0.1-0.6-0.3-0.8c-0.2-0.2-0.4-0.3-0.8-0.3c-0.4,0-0.7,0.1-0.9,0.4c-0.2,0.3-0.3,0.7-0.3,1.3v0.4c0,0.6,0.1,1.1,0.3,1.3
	c0.2,0.3,0.5,0.4,0.9,0.4c0.4,0,0.6-0.1,0.8-0.2c0.2-0.2,0.3-0.4,0.3-0.8H189.7z"/>
</svg>
