<svg xmlns="http://www.w3.org/2000/svg" xmlns:xlink="http://www.w3.org/1999/xlink" viewBox="0 0 191.38 36.77"><defs><style>.cls-1{fill:none;}.cls-2{clip-path:url(#clip-path);}.cls-3{fill:#01177e;}</style><clipPath id="clip-path" transform="translate(0.38 0.38)"><circle class="cls-1" cx="18" cy="18" r="18"/></clipPath></defs><g id="Layer_2" data-name="Layer 2"><g id="Layer_1-2" data-name="Layer 1"><g class="cls-2"><image width="900" height="900" transform="translate(0 0) scale(0.04)" xlink:href="../Mas%20Ujang%20-%20Social%20Media%20Analytic/photo_2021-06-14_13-25-02.jpg"/></g><path class="cls-3" d="M59.31,9.85a1.58,1.58,0,0,0-1.58,1.58V21.74L56.57,23H48.66l-1.18-1.25V11.43a1.58,1.58,0,0,0-3.16,0v10.7a2.17,2.17,0,0,0,.59,1.46l1.72,1.86a2.15,2.15,0,0,0,1.59.7H57a2.16,2.16,0,0,0,1.6-.7l1.72-1.87a2.1,2.1,0,0,0,.57-1.45V11.43A1.57,1.57,0,0,0,59.31,9.85Z" transform="translate(0.38 0.38)"/><path class="cls-3" d="M79.08,10.67a2.2,2.2,0,0,0-1.48-.56H67.24a1.58,1.58,0,0,0-1.58,1.58v12.9a1.58,1.58,0,0,0,3.16,0V20.37H77.6a2.09,2.09,0,0,0,1.46-.58l1.88-1.72a2.14,2.14,0,0,0,.69-1.58V14A2.13,2.13,0,0,0,81,12.42Zm-10.26,2.6h8.4l1.26,1.16v1.62l-1.26,1.16h-8.4Z" transform="translate(0.38 0.38)"/><path class="cls-3" d="M90.83,13.25h8.26l1.78,1.64a1.61,1.61,0,0,0,1.08.42,1.55,1.55,0,0,0,1.15-.5,1.6,1.6,0,0,0,.42-1.14,1.57,1.57,0,0,0-.52-1.1l-2-1.87a2.08,2.08,0,0,0-1.49-.59h-9a2.06,2.06,0,0,0-1.45.56l-1.88,1.72a2.15,2.15,0,0,0-.69,1.6v8.28a2.15,2.15,0,0,0,.69,1.6L89,25.56a2.08,2.08,0,0,0,1.48.59h9a2.2,2.2,0,0,0,1.46-.56L103,23.66a1.64,1.64,0,0,0,.48-1.15V18.13a1.57,1.57,0,0,0-1.57-1.58H95a1.58,1.58,0,1,0,0,3.16h5.4v2.12L99.1,23H90.83l-1.27-1.16v-7.4Z" transform="translate(0.38 0.38)"/><path class="cls-3" d="M121.71,23l-1.3-2.64a2.07,2.07,0,0,0,1.31-.56L123.63,18a2.23,2.23,0,0,0,.65-1.57V14a2.25,2.25,0,0,0-.68-1.6l-1.85-1.69a2.08,2.08,0,0,0-1.49-.59H109.9a1.57,1.57,0,0,0-1.58,1.56v12.9a1.58,1.58,0,1,0,3.16,0V20.35h5.42l2.33,4.72a1.53,1.53,0,0,0,.36.52,2.18,2.18,0,0,0,1.45.56h1.73a1.58,1.58,0,0,0,1.58-1.58v-.41L123.18,23Zm-10.23-9.74h8.39l1.26,1.18v1.06h0v.56l-1.27,1.16h-8.37Z" transform="translate(0.38 0.38)"/><path class="cls-3" d="M141.88,13.09a1.58,1.58,0,1,0,0-3.16H130.72a1.58,1.58,0,0,0,0,3.16h4V23h-4a1.58,1.58,0,0,0,0,3.16h11.16a1.58,1.58,0,1,0,0-3.16h-4v-9.9Z" transform="translate(0.38 0.38)"/><path class="cls-3" d="M167.55,9.93h-2a1.61,1.61,0,0,0-1.3.65l-5.56,7.7-5.59-7.76a1.6,1.6,0,0,0-1.24-.59h-2a1.58,1.58,0,0,0-1.58,1.58V24.57a1.58,1.58,0,1,0,3.16,0v-11l6,8.33a1.58,1.58,0,0,0,1.27.66,1.68,1.68,0,0,0,1.3-.65l6-8.32v11a1.57,1.57,0,1,0,3.14,0V11.51A1.57,1.57,0,0,0,167.55,9.93Z" transform="translate(0.38 0.38)"/><path class="cls-3" d="M188.28,16.69a2.2,2.2,0,0,0-1.48-.56h-8.49L177.06,15v-.79L178.32,13h8.27l1.76,1.64a1.58,1.58,0,0,0,2.2-.07,1.57,1.57,0,0,0-.05-2.25l-2.06-1.9A2.17,2.17,0,0,0,187,9.85h-9a2.19,2.19,0,0,0-1.48.58l-1.85,1.72a2.15,2.15,0,0,0-.71,1.6v1.64a2.14,2.14,0,0,0,.7,1.59l1.87,1.73a2.19,2.19,0,0,0,1.45.58h8.5l1.26,1.16v1.38L186.42,23h-8.1l-1.76-1.64a1.6,1.6,0,0,0-2.21.07,1.58,1.58,0,0,0-.44,1.1,1.67,1.67,0,0,0,.49,1.17l2.11,1.93a2.23,2.23,0,0,0,1.41.53h8.88a2.2,2.2,0,0,0,1.49-.57l1.85-1.73a2.16,2.16,0,0,0,.7-1.6V20a2.16,2.16,0,0,0-.69-1.59Z" transform="translate(0.38 0.38)"/></g></g></svg>